<?xml version="1.0" encoding="UTF-8"?>
<svg width="17px" height="23px" viewBox="0 0 17 23" version="1.1" xmlns="http://www.w3.org/2000/svg" xmlns:xlink="http://www.w3.org/1999/xlink">
    <g id="H5暗黑" stroke="none" stroke-width="1" fill="none" fill-rule="evenodd">
        <g id="0-H5首页" transform="translate(-367.000000, -398.000000)" fill-rule="nonzero">
            <g id="编组" transform="translate(355.000000, 391.000000)">
                <g id="74-交换" transform="translate(20.000000, 20.000000) rotate(-90.000000) translate(-20.000000, -20.000000) ">
                    <rect id="矩形" fill="#000000" opacity="0" x="0" y="0" width="40" height="40"></rect>
                    <path d="M31.328125,22.0009766 L11.6640625,22.0009766 C10.9882813,22.0009766 10.3828125,21.5947266 10.125,20.9736328 C9.8671875,20.3486328 10.0078125,19.6337891 10.484375,19.1572266 L17.1523438,12.4892578 C17.8046875,11.8369141 18.859375,11.8369141 19.5078125,12.4892578 C20.15625,13.1416016 20.1601563,14.1962891 19.5078125,14.8447266 L15.6875,18.6650391 L31.3320313,18.6650391 C32.2539063,18.6650391 33,19.4111328 33,20.3330078 C33,21.2548828 32.25,22.0009766 31.328125,22.0009766 Z" id="形状" fill="#BBBBBB"></path>
                    <path d="M31.3248886,28.502623 L11.6608261,28.502623 C10.9850449,28.502623 10.3795761,28.096373 10.1217636,27.4752792 C9.86395112,26.8502792 10.0045761,26.1354355 10.4811386,25.658873 L17.1491074,18.9909042 C17.8014511,18.3385605 18.8561386,18.3385605 19.5045761,18.9909042 C20.1530136,19.643248 20.1569199,20.6979355 19.5045761,21.346373 L15.6842636,25.1666855 L31.3287949,25.1666855 C32.2506699,25.1666855 32.9967636,25.9127792 32.9967636,26.8346542 C32.9967636,27.7565292 32.2467636,28.502623 31.3248886,28.502623 Z" id="形状" fill="#BBBBBB" transform="translate(21.495605, 23.502135) scale(1, -1) translate(-21.495605, -23.502135) "></path>
                </g>
            </g>
        </g>
    </g>
</svg>