<?xml version="1.0" encoding="UTF-8"?>
<svg  viewBox="0 0 33 38" version="1.1" xmlns="http://www.w3.org/2000/svg" xmlns:xlink="http://www.w3.org/1999/xlink">
    <g id="H5暗黑" stroke="none" stroke-width="1" fill="none" fill-rule="evenodd">
        <g id="0-H5首页-公告" transform="translate(-528.000000, -1471.000000)">
            <g id="编组备份" transform="translate(545.000000, 1490.000000) rotate(-180.000000) translate(-545.000000, -1490.000000) translate(525.000000, 1470.000000)">
                <g id="编组" transform="translate(4.000000, 1.000000)">
                    <path d="M30.6362544,7.83057636 L18.1325044,0.51182636 C16.9666978,-0.170608787 15.523311,-0.170608787 14.3575044,0.51182636 L1.86250439,7.83057636 C0.707372809,8.50934753 -0.00143818866,9.74952892 2.19107772e-06,11.0893264 L2.19107772e-06,26.6230764 C2.19107772e-06,27.9818264 0.727504389,29.2355764 1.90375439,29.9043264 L14.4037544,37.0105764 C15.547999,37.6618136 16.9507597,37.6618136 18.0950044,37.0105764 L30.5950044,29.9043264 C31.7738359,29.2327045 32.5012324,27.979807 32.5000022,26.6230764 L32.5000022,11.0893264 C32.5011868,9.74927342 31.7918665,8.50903337 30.6362544,7.83057636 Z" id="形状备份" fill="#44D7B6" fill-rule="nonzero"></path>
                    <path d="M16.25,10.2875 C16.9403559,10.2875 17.5,9.72785594 17.5,9.0375 L17.5,5.25 C17.5,4.55964406 16.9403559,4 16.25,4 C15.5596441,4 15,4.55964406 15,5.25 L15,9.0375 C15,9.72785594 15.5596441,10.2875 16.25,10.2875 Z" id="路径" fill="#000000"></path>
                    <path d="M9.50040816,24.56375 C9.29805482,24.5635908 9.11555576,24.6854137 9.03809695,24.8723549 C8.96063813,25.0592962 9.00349307,25.2744942 9.14665816,25.4175 L15.8166582,32.0875 C15.9104423,32.1813885 16.0377035,32.2341433 16.1704082,32.2341433 C16.3031128,32.2341433 16.430374,32.1813885 16.5241582,32.0875 L23.1941582,25.4175 C23.3373233,25.2744942 23.3801782,25.0592962 23.3027194,24.8723549 C23.2252606,24.6854137 23.0427615,24.5635908 22.8404082,24.56375 L17.3766582,24.56375 L17.3766582,14.25 C17.3766582,13.5596441 16.8170141,13 16.1266582,13 C15.4363022,13 14.8766582,13.5596441 14.8766582,14.25 L14.8766582,24.56375 L9.50040816,24.56375 L9.50040816,24.56375 Z" id="路径" fill="#000000"></path>
                </g>
            </g>
        </g>
    </g>
</svg>