<?xml version="1.0" encoding="UTF-8"?>
<svg  viewBox="0 0 40 40" version="1.1" xmlns="http://www.w3.org/2000/svg" xmlns:xlink="http://www.w3.org/1999/xlink">
    <g id="H5暗黑" stroke="none" stroke-width="1" fill="none" fill-rule="evenodd">
        <g id="0-H5首页" transform="translate(-525.000000, -1470.000000)" fill-rule="nonzero">
            <g id="API接入" transform="translate(545.000000, 1490.000000) rotate(-180.000000) translate(-545.000000, -1490.000000) translate(525.000000, 1470.000000)">
                <rect id="矩形" fill="#000000" opacity="0" x="0" y="0" width="40" height="40"></rect>
                <path d="M20,10 C20.6903559,10 21.25,9.44035594 21.25,8.75 L21.25,4.9625 C21.25,4.27214406 20.6903559,3.7125 20,3.7125 C19.3096441,3.7125 18.75,4.27214406 18.75,4.9625 L18.75,8.75 C18.75,9.44035594 19.3096441,10 20,10 Z M13.37375,24.06375 C13.1713967,24.0635908 12.9888976,24.1854137 12.9114388,24.3723549 C12.83398,24.5592962 12.8768349,24.7744942 13.02,24.9175 L19.69,31.5875 C19.7837841,31.6813885 19.9110454,31.7341433 20.04375,31.7341433 C20.1764546,31.7341433 20.3037159,31.6813885 20.3975,31.5875 L27.0675,24.9175 C27.2106651,24.7744942 27.25352,24.5592962 27.1760612,24.3723549 C27.0986024,24.1854137 26.9161033,24.0635908 26.71375,24.06375 L21.25,24.06375 L21.25,13.75 C21.25,13.0596441 20.6903559,12.5 20,12.5 C19.3096441,12.5 18.75,13.0596441 18.75,13.75 L18.75,24.06375 L13.37375,24.06375 L13.37375,24.06375 Z M34.85875,7.285 L28.055,3.9225 C27.4416107,3.64896479 26.7216745,3.90847211 26.4238731,4.51045408 C26.1260716,5.11243604 26.3566349,5.84215699 26.94625,6.16375 L33.75,9.52625 L33.75,29.16875 L20,34.93125 L6.25,29.16875 L6.25,9.52625 L13.05375,6.16375 C13.656471,5.84962344 13.8977493,5.11147575 13.596924,4.50200699 C13.2960986,3.89253823 12.5634231,3.63512072 11.9475,3.9225 L5.1425,7.285 C4.28748797,7.70383602 3.74674579,8.57416881 3.74998539,9.52625 L3.74998539,29.16875 C3.74998539,30.18 4.3525,31.085 5.28375,31.47375 L19.5175,37.43875 C19.8268691,37.5688995 20.1756309,37.5688995 20.485,37.43875 L34.7175,31.475 C35.6474138,31.086535 36.2521044,30.1765398 36.250014,29.16875 L36.250014,9.52625 C36.2531878,8.57453521 35.7130668,7.70442107 34.85875,7.285 L34.85875,7.285 Z" id="形状" fill="#BBBBBB"></path>
            </g>
        </g>
    </g>
</svg>