<?xml version="1.0" encoding="UTF-8"?>
<svg width="12px" height="12px" viewBox="0 0 12 12" version="1.1" xmlns="http://www.w3.org/2000/svg" xmlns:xlink="http://www.w3.org/1999/xlink">
    <g id="Pc暗黑" stroke="none" stroke-width="1" fill="none" fill-rule="evenodd">
        <g id="3-交易历史" transform="translate(-1162.000000, -576.000000)" fill-rule="nonzero">
            <g id="编组" transform="translate(1152.000000, 566.000000)">
                <g id="arrowup" transform="translate(16.000000, 16.000000) rotate(-315.000000) translate(-16.000000, -16.000000) translate(5.000000, 5.000000)">
                    <rect id="矩形" fill="#000000" opacity="0" x="0" y="0" width="21.426087" height="21.426087"></rect>
                    <path d="M18.1619565,11.4139946 L11.2173098,3.41059783 C10.9515761,3.1030163 10.4745109,3.1030163 10.2066848,3.41059783 L3.26413043,11.4139946 C3.16997283,11.5227989 3.2473913,11.6901902 3.38967391,11.6901902 L5.08451087,11.6901902 C5.18076087,11.6901902 5.27282609,11.6483424 5.33769022,11.5751087 L9.91793478,6.29600543 L9.91793478,18.0782609 C9.91793478,18.1703261 9.99326087,18.2456522 10.0853261,18.2456522 L11.3407609,18.2456522 C11.4328261,18.2456522 11.5081522,18.1703261 11.5081522,18.0782609 L11.5081522,6.29600543 L16.0883967,11.5751087 C16.1511685,11.6483424 16.2432337,11.6901902 16.3415761,11.6901902 L18.036413,11.6901902 C18.1786957,11.6901902 18.2561141,11.5227989 18.1619565,11.4139946 Z" id="路径" fill="#44D7B6"></path>
                </g>
            </g>
        </g>
    </g>
</svg>