<?xml version="1.0" encoding="UTF-8"?>
<svg width="32px" height="32px" viewBox="0 0 32 32" version="1.1" xmlns="http://www.w3.org/2000/svg" xmlns:xlink="http://www.w3.org/1999/xlink">
    <g id="H5暗黑" stroke="none" stroke-width="1" fill="none" fill-rule="evenodd">
        <g id="0-H5" transform="translate(-164.000000, -993.000000)" fill-rule="nonzero">
            <g id="sync" transform="translate(164.000000, 993.000000)">
                <rect id="矩形" fill="#000000" opacity="0" x="0" y="0" width="32" height="32"></rect>
                <path d="M5.25,15.75625 C5.28125,14.390625 5.5625,13.065625 6.090625,11.81875 C6.63125,10.5375 7.40625,9.390625 8.39375,8.4 C9.38125,7.409375 10.53125,6.634375 11.8125,6.09375 C13.1375,5.534375 14.54375,5.25 15.996875,5.25 C17.45,5.25 18.85625,5.534375 20.178125,6.09375 C21.45625,6.634375 22.60625,7.409375 23.59375,8.4 C23.903125,8.709375 24.19375,9.0375 24.4625,9.38125 L22.58125,10.85 C22.415625,10.978125 22.471875,11.240625 22.675,11.290625 L28.165625,12.634375 C28.321875,12.671875 28.475,12.553125 28.475,12.39375 L28.5,6.740625 C28.5,6.53125 28.259375,6.4125 28.096875,6.54375 L26.334375,7.921875 C23.93125,4.846875 20.19375,2.875 15.99375,2.875 C8.834375,2.875 3.009375,8.6125 2.87493644,15.74375 C2.871875,15.884375 2.984375,16 3.125,16 L5,16 C5.1375,16 5.246875,15.890625 5.25,15.75625 Z M28.875,16 L27,16 C26.8625,16 26.753125,16.109375 26.75,16.24375 C26.71875,17.609375 26.4375,18.934375 25.909375,20.18125 C25.36875,21.4625 24.59375,22.6125 23.60625,23.6 C22.61875,24.5875 21.46875,25.365625 20.1875,25.90625 C18.8625,26.465625 17.45625,26.75 16.003125,26.75 C14.55,26.75 13.14375,26.465625 11.81875,25.90625 C10.540625,25.365625 9.390625,24.590625 8.403125,23.6 C8.09375,23.290625 7.803125,22.9625 7.534375,22.61875 L9.415625,21.15 C9.58125,21.021875 9.525,20.759375 9.321875,20.709375 L3.83125,19.365625 C3.675,19.328125 3.521875,19.446875 3.521875,19.60625 L3.5,25.2625 C3.5,25.471875 3.740625,25.590625 3.903125,25.459375 L5.665625,24.08125 C8.06875,27.153125 11.80625,29.125 16.00625,29.125 C23.16875,29.125 28.990625,23.384375 29.1250636,16.25625 C29.128125,16.115625 29.015625,16 28.875,16 Z" id="形状" fill="#FFFFFF"></path>
            </g>
        </g>
    </g>
</svg>