<?xml version="1.0" encoding="UTF-8"?>
<svg width="14px" height="14px" viewBox="0 0 14 14" version="1.1" xmlns="http://www.w3.org/2000/svg" xmlns:xlink="http://www.w3.org/1999/xlink">
    <g id="V1.2-0126" stroke="none" stroke-width="1" fill="none" fill-rule="evenodd">
        <g id="1-Shuttle-In-交易对" transform="translate(-763.000000, -585.000000)">
            <g id="Conflux" transform="translate(763.000000, 585.000000)">
                <path d="M6.1,0.75055535 C6.65692194,0.429016319 7.34307806,0.429016319 7.9,0.75055535 L7.9,0.75055535 L11.9621778,3.09585481 C12.2406388,3.25662433 12.4656388,3.48556624 12.6210236,3.75470054 C12.7764083,4.02383483 12.8621778,4.33316151 12.8621778,4.65470054 L12.8621778,4.65470054 L12.8621778,9.34529946 C12.8621778,9.98837752 12.5190998,10.5826062 11.9621778,10.9041452 L11.9621778,10.9041452 L7.9,13.2494447 C7.34307806,13.5709837 6.65692194,13.5709837 6.1,13.2494447 L6.1,13.2494447 L2.03782217,10.9041452 C1.48090024,10.5826062 1.13782217,9.98837752 1.13782217,9.34529946 L1.13782217,9.34529946 L1.13782217,4.65470054 C1.13782217,4.01162248 1.48090024,3.41739384 2.03782217,3.09585481 L2.03782217,3.09585481 Z" id="多边形" stroke="#44D7B6" stroke-width="0.4" fill="#FFFFFF"></path>
                <g id="编组" transform="translate(3.434681, 2.738985)">
                    <polygon id="Fill-1" fill="#231916" points="0.85483125 6.09571375 3.44588125 8.68667625 6.05338125 6.07917625 5.18923125 5.21502625 3.45611875 6.94822625 2.59424375 6.08643875 4.32735625 4.35323875 3.46241875 3.48812625"></polygon>
                    <polygon id="Fill-2" fill="#38A0DA" points="3.47610375 -8.75e-06 -8.75e-06 3.47610375 0.01171625 5.19792875 3.46044125 1.74929125 6.92281625 5.21166625 6.92894125 3.45282875"></polygon>
                </g>
            </g>
        </g>
    </g>
</svg>