<?xml version="1.0" encoding="UTF-8"?>
<svg width="20px" height="20px" viewBox="0 0 20 20" version="1.1" xmlns="http://www.w3.org/2000/svg" xmlns:xlink="http://www.w3.org/1999/xlink">
	<g id="V1.1" stroke="none" stroke-width="1" fill="none" fill-rule="evenodd">
		<g id="1-1-1--选择Token" transform="translate(-755.000000, -539.000000)">
			<g id="提示信息Infos-(3)" transform="translate(755.000000, 539.000000)">
				<rect id="矩形" fill="#000000" fill-rule="nonzero" opacity="0" x="0" y="0" width="20" height="20">
				</rect>
				<path d="M10,1.25 C4.16601562,1.25 1.25,4.16601562 1.25,10 C1.25,15.8339844 4.16601562,18.75 10,18.75 C15.8339844,18.75 18.75,15.8339844 18.75,10 C18.75,4.16601562 15.8339844,1.25 10,1.25 Z" id="形状" fill="#FFD358" fill-rule="nonzero">
				</path>
				<path d="M10.0566406,12.5527344 C10.6386719,12.5527344 11.109375,13.0234375 11.109375,13.6054687 L11.109375,13.90625 C11.109375,14.4882812 10.6386719,14.9589844 10.0566406,14.9589844 C9.47460938,14.9589844 9.00390625,14.4882812 9.00390625,13.90625 L9.00390625,13.6054687 C9.00390625,13.0253906 9.47460938,12.5527344 10.0566406,12.5527344 Z M10.0566406,4.4765625 C10.6386719,4.4765625 11.5136719,5.20117187 11.5136719,5.78125 L11.109375,10.5957031 C11.109375,11.1777344 10.6386719,11.6484375 10.0566406,11.6484375 C9.47460938,11.6484375 9.00390625,11.1777344 9.00390625,10.5957031 L8.55078125,5.78125 C8.55078125,5.20117187 9.4765625,4.4765625 10.0566406,4.4765625 Z" id="形状结合" fill="#1B1B1B">
				</path>
			</g>
		</g>
	</g>
</svg>
