<svg width="14" height="14" viewBox="0 0 14 14" fill="none" xmlns="http://www.w3.org/2000/svg">
	<path d="M6.97465 4.27819C5.44324 4.27819 4.19734 5.51011 4.19734 7.02433C4.19734 8.53862 5.44324 9.77063 6.97465 9.77063C7.12367 9.77063 7.28123 9.75534 7.47148 9.72237C7.7558 9.6711 7.94478 9.40146 7.89278 9.12126C7.84709 8.87544 7.63195 8.69701 7.3811 8.69701C7.34874 8.69701 7.3161 8.70008 7.28542 8.70582C7.16139 8.72774 7.06302 8.73795 6.97593 8.73795C6.02031 8.73795 5.24288 7.96918 5.24288 7.02433C5.24288 6.07953 6.01912 5.31087 6.97331 5.31087C7.92826 5.31087 8.70506 6.07953 8.70506 7.02433C8.70506 7.1164 8.6948 7.21313 8.67243 7.32952C8.62043 7.60965 8.80946 7.87935 9.09366 7.93052C9.12502 7.93614 9.15687 7.93905 9.18851 7.93905C9.4417 7.93905 9.65757 7.76046 9.70152 7.51536C9.73494 7.33642 9.75056 7.18043 9.75056 7.02444C9.75123 6.29204 9.4625 5.60272 8.93755 5.08346C8.41261 4.56418 7.71548 4.27819 6.97465 4.27819ZM13.6637 5.7625C13.6295 5.58396 13.4912 5.44219 13.3111 5.40124C12.6563 5.25267 12.1114 4.85547 11.777 4.28326C11.4436 3.712 11.3677 3.04733 11.5631 2.4128C11.6182 2.239 11.5632 2.04975 11.4232 1.93092C10.7691 1.37277 10.0242 0.947508 9.20922 0.66709C9.15996 0.650077 9.10863 0.641475 9.05646 0.641475C8.92746 0.641475 8.8036 0.695087 8.71701 0.787984C8.26018 1.27305 7.64137 1.54018 6.97465 1.54018C6.30787 1.54018 5.68863 1.2726 5.23078 0.786577C5.10769 0.656361 4.91031 0.606699 4.73734 0.665843C3.91728 0.949778 3.17278 1.37547 2.5242 1.93129C2.38645 2.04991 2.33166 2.23786 2.3846 2.41055C2.58126 3.04564 2.50584 3.71024 2.17213 4.28213C1.83922 4.85395 1.29479 5.25097 0.638164 5.40028C0.457838 5.44262 0.319468 5.58484 0.285667 5.76226C0.203978 6.18679 0.162582 6.61143 0.162582 7.0243C0.162582 7.43722 0.203978 7.86186 0.285603 8.28623C0.31958 8.46454 0.457838 8.60636 0.637988 8.64749C1.29289 8.79612 1.83777 9.19315 2.17224 9.76542C2.50583 10.3372 2.58126 11.0018 2.38448 11.6372C2.33193 11.8086 2.38639 11.9968 2.52469 12.1178C3.17859 12.6757 3.92304 13.1009 4.73817 13.3819C4.91733 13.4426 5.10909 13.3905 5.22964 13.2619C5.68743 12.7761 6.30661 12.5085 6.97329 12.5085C7.63998 12.5085 8.25927 12.7761 8.71643 13.2614C8.80325 13.3545 8.92728 13.408 9.05678 13.408C9.10799 13.408 9.15893 13.3998 9.21037 13.383C10.0248 13.1022 10.7693 12.677 11.4237 12.1187C11.561 12.0003 11.616 11.812 11.5634 11.6381C11.3666 11.0025 11.4424 10.338 11.777 9.76665C12.1102 9.19438 12.655 8.79742 13.3113 8.64872C13.4893 8.60822 13.6275 8.46694 13.6636 8.28768C13.7452 7.86293 13.7866 7.43834 13.7866 7.02564C13.7866 6.61207 13.7453 6.18698 13.6637 5.7625ZM10.3839 11.3419C9.97727 11.6568 9.52868 11.913 9.04821 12.1047C8.47504 11.6024 7.74192 11.3269 6.97333 11.3269C6.20885 11.3269 5.47584 11.6024 4.89883 12.1048C4.41845 11.9132 3.96981 11.657 3.56303 11.3421C3.71763 10.6008 3.59255 9.83505 3.20735 9.17602C2.82534 8.52029 2.21629 8.0301 1.48569 7.78789C1.44848 7.53253 1.42968 7.27605 1.42968 7.02431C1.42968 6.77364 1.44848 6.51727 1.48569 6.26101C2.21401 6.02055 2.82294 5.5304 3.20735 4.87272C3.59053 4.21609 3.71557 3.45032 3.56281 2.70678C3.96943 2.39194 4.41805 2.13579 4.89865 1.94403C5.47399 2.44718 6.20706 2.72312 6.97331 2.72312C7.74197 2.72312 8.47503 2.44756 9.04819 1.94531C9.52868 2.13702 9.97721 2.39317 10.3838 2.70801C10.2306 3.45229 10.3551 4.21793 10.738 4.87395C11.12 5.52968 11.7289 6.01994 12.4596 6.26224C12.4968 6.51827 12.5156 6.77476 12.5156 7.02694C12.5179 7.26825 12.4995 7.52377 12.4609 7.78789C11.7303 8.03015 11.1213 8.52029 10.7393 9.17596C10.3569 9.8311 10.232 10.5967 10.3839 11.3419Z" fill="white" />
</svg>
