<svg width="24" height="24" viewBox="0 0 24 24" fill="none" xmlns="http://www.w3.org/2000/svg">
	<rect opacity="0.01" x="1.5" y="22.5" width="21" height="21" transform="rotate(-90 1.5 22.5)" fill="black" />
	<circle cx="12" cy="12" r="12" transform="rotate(-90 12 12)" fill="white" fill-opacity="0.1" />
	<path d="M12.7505 6.87774V16.3764C12.7505 16.7312 12.5372 17.049 12.2112 17.1844C11.883 17.3197 11.5077 17.2459 11.2575 16.9957L7.75686 13.495C7.41438 13.1525 7.41438 12.5988 7.75686 12.2584C8.09934 11.918 8.65305 11.9159 8.99348 12.2584L10.9991 14.2641V6.87569C10.9991 6.3917 11.3908 6 11.8748 6C12.3588 6 12.7505 6.39375 12.7505 6.87774Z" fill="#BBBBBB" />
	<path d="M11.1427 6.87772V16.3764C11.1427 16.7311 11.3561 17.049 11.6824 17.1844C12.0108 17.3197 12.3864 17.2459 12.6367 16.9957L16.1399 13.495C16.4827 13.1525 16.4827 12.5988 16.1399 12.2584C15.7972 11.918 15.2431 11.9159 14.9024 12.2584L12.8953 14.2641V6.87567C12.8953 6.39169 12.5033 5.99999 12.019 5.99999C11.5347 5.99999 11.1427 6.39374 11.1427 6.87772Z" fill="#BBBBBB" />
</svg>
