<svg width="160" height="112" viewBox="0 0 160 112" fill="none" xmlns="http://www.w3.org/2000/svg">
<mask id="mask0" mask-type="alpha" maskUnits="userSpaceOnUse" x="0" y="0" width="160" height="112">
<rect width="160" height="112" fill="#C4C4C4"/>
</mask>
<g mask="url(#mask0)">
<g opacity="0.3">
<path fill-rule="evenodd" clip-rule="evenodd" d="M108.777 80.5492C109.229 78.8012 110.921 77.621 112.759 77.8557C114.365 78.0608 115.592 79.2836 115.875 80.7936C116.183 80.7152 116.51 80.6923 116.845 80.735C118.268 80.9168 119.275 82.2181 119.093 83.6417C118.912 85.0652 117.61 86.0719 116.187 85.8901C115.746 85.8339 115.346 85.6706 115.008 85.4298C114.153 85.8693 112.988 86.124 111.71 86.091C110.602 86.0624 109.589 85.8218 108.797 85.4431C108.421 85.58 108.007 85.6315 107.582 85.5773C106.158 85.3955 105.152 84.0942 105.334 82.6706C105.515 81.2471 106.817 80.2404 108.24 80.4222C108.427 80.4461 108.606 80.4891 108.777 80.5492Z" fill="#B9BFDD"/>
<path fill-rule="evenodd" clip-rule="evenodd" d="M28.699 59.4171C29.339 56.6857 31.9261 54.7925 34.7893 55.0919C37.2912 55.3536 39.2404 57.2097 39.7332 59.5452C40.2087 59.4126 40.7166 59.3655 41.2373 59.42C43.4551 59.6519 45.0649 61.6377 44.8329 63.8555C44.601 66.0732 42.6151 67.683 40.3974 67.4511C39.7117 67.3793 39.0842 67.14 38.5512 66.7779C37.2374 67.4907 35.4368 67.9275 33.4516 67.9215C31.7288 67.9163 30.147 67.5784 28.9032 67.0182C28.3231 67.2441 27.682 67.3389 27.0203 67.2697C24.8026 67.0378 23.1928 65.0519 23.4247 62.8342C23.6567 60.6165 25.6425 59.0067 27.8602 59.2386C28.1512 59.2691 28.4317 59.3297 28.699 59.4171Z" fill="#B9BFDD"/>
<path fill-rule="evenodd" clip-rule="evenodd" d="M40.4915 83.3888C40.6746 83.3471 40.8685 83.3386 41.0653 83.3688C41.9035 83.4977 42.4785 84.2815 42.3497 85.1197C42.2209 85.9578 41.437 86.5329 40.5988 86.404C40.3396 86.3642 40.1056 86.2617 39.9098 86.1144C39.3977 86.3611 38.7056 86.4939 37.9516 86.4552C37.2973 86.4216 36.7027 86.2642 36.2405 86.0285C36.016 86.1037 35.7708 86.1279 35.5207 86.0895C34.6826 85.9606 34.1075 85.1768 34.2364 84.3386C34.3652 83.5004 35.1491 82.9254 35.9872 83.0543C36.0972 83.0712 36.2026 83.0993 36.3025 83.1374C36.5958 82.1117 37.6133 81.4401 38.6953 81.6064C39.6409 81.7518 40.3472 82.4926 40.4915 83.3888Z" fill="#B9BFDD"/>
</g>
<path opacity="0.2" fill-rule="evenodd" clip-rule="evenodd" d="M72.342 59.1331L51.3975 87.1841L96.7724 101.352L93.7629 65.2039L72.342 59.1331Z" fill="url(#paint0_linear)"/>
<path opacity="0.2" fill-rule="evenodd" clip-rule="evenodd" d="M77.6742 60.1208L56.5148 88.86L92.9546 100.238L90.1639 63.3893L77.6742 60.1208Z" fill="url(#paint1_linear)"/>
<g filter="url(#filter0_i)">
<path fill-rule="evenodd" clip-rule="evenodd" d="M63.3029 47.0193C62.6189 54.5282 71.2077 62.8272 83.4692 66.1126C95.7306 69.3981 107.318 66.5053 110.48 59.6604L63.3029 47.0193Z" fill="#464A60"/>
</g>
<g filter="url(#filter1_i)">
<path fill-rule="evenodd" clip-rule="evenodd" d="M124.018 59.0764C116.865 61.776 102.489 61.1448 86.7083 56.9164C69.4672 52.2966 55.8248 44.7965 52.1792 38.5112C52.1666 38.5545 52.1544 38.5979 52.1427 38.6416C50.0238 46.5494 64.4852 57.2952 84.4431 62.6429C103.469 67.741 120.623 66.0927 124.018 59.0764Z" fill="#9094A7"/>
</g>
<path d="M85.8807 58.1866C96.0727 60.9176 105.564 62.4639 112.676 62.7504C116.227 62.8936 119.214 62.7238 121.405 62.2164C122.501 61.9628 123.424 61.6189 124.126 61.1681C124.83 60.7151 125.339 60.1339 125.534 59.4061C125.729 58.6784 125.579 57.9205 125.195 57.1761C124.813 56.435 124.185 55.6755 123.364 54.9081C121.719 53.3728 119.218 51.7327 116.07 50.0807C109.768 46.773 100.775 43.3666 90.5835 40.6356C80.3915 37.9047 70.9003 36.3584 63.7886 36.0718C60.2368 35.9287 57.2506 36.0985 55.0588 36.6059C53.9634 36.8595 53.0398 37.2033 52.3387 37.6542C51.6343 38.1072 51.1253 38.6884 50.9303 39.4162C50.7353 40.1439 50.8855 40.9018 51.269 41.6462C51.6508 42.3873 52.2787 43.1468 53.1006 43.9141C54.745 45.4495 57.2463 47.0896 60.3937 48.7415C66.696 52.0493 75.6887 55.4557 85.8807 58.1866Z" fill="url(#paint2_linear)"/>
<path d="M85.8807 58.1866C96.0727 60.9176 105.564 62.4639 112.676 62.7504C116.227 62.8936 119.214 62.7238 121.405 62.2164C122.501 61.9628 123.424 61.6189 124.126 61.1681C124.83 60.7151 125.339 60.1339 125.534 59.4061C125.729 58.6784 125.579 57.9205 125.195 57.1761C124.813 56.435 124.185 55.6755 123.364 54.9081C121.719 53.3728 119.218 51.7327 116.07 50.0807C109.768 46.773 100.775 43.3666 90.5835 40.6356C80.3915 37.9047 70.9003 36.3584 63.7886 36.0718C60.2368 35.9287 57.2506 36.0985 55.0588 36.6059C53.9634 36.8595 53.0398 37.2033 52.3387 37.6542C51.6343 38.1072 51.1253 38.6884 50.9303 39.4162C50.7353 40.1439 50.8855 40.9018 51.269 41.6462C51.6508 42.3873 52.2787 43.1468 53.1006 43.9141C54.745 45.4495 57.2463 47.0896 60.3937 48.7415C66.696 52.0493 75.6887 55.4557 85.8807 58.1866Z" fill="white"/>
<path d="M85.8807 58.1866C96.0727 60.9176 105.564 62.4639 112.676 62.7504C116.227 62.8936 119.214 62.7238 121.405 62.2164C122.501 61.9628 123.424 61.6189 124.126 61.1681C124.83 60.7151 125.339 60.1339 125.534 59.4061C125.729 58.6784 125.579 57.9205 125.195 57.1761C124.813 56.435 124.185 55.6755 123.364 54.9081C121.719 53.3728 119.218 51.7327 116.07 50.0807C109.768 46.773 100.775 43.3666 90.5835 40.6356C80.3915 37.9047 70.9003 36.3584 63.7886 36.0718C60.2368 35.9287 57.2506 36.0985 55.0588 36.6059C53.9634 36.8595 53.0398 37.2033 52.3387 37.6542C51.6343 38.1072 51.1253 38.6884 50.9303 39.4162C50.7353 40.1439 50.8855 40.9018 51.269 41.6462C51.6508 42.3873 52.2787 43.1468 53.1006 43.9141C54.745 45.4495 57.2463 47.0896 60.3937 48.7415C66.696 52.0493 75.6887 55.4557 85.8807 58.1866Z" stroke="white"/>
<path fill-rule="evenodd" clip-rule="evenodd" d="M124.087 60.5875C118.63 62.7912 103.884 61.5121 87.2213 57.0473C66.8868 51.5987 51.3973 43.469 52.6244 38.8892C52.7583 38.3896 53.0855 37.9529 53.5887 37.5784C52.3863 38.064 51.6348 38.7187 51.4133 39.5456C50.1861 44.1255 65.6756 52.2551 86.0101 57.7037C104.127 62.558 119.977 63.6465 124.087 60.5875Z" fill="url(#paint3_linear)"/>
<g opacity="0.597493" filter="url(#filter2_i)">
<ellipse cx="89.0647" cy="46.9678" rx="26.9571" ry="5.32273" transform="rotate(15 89.0647 46.9678)" fill="url(#paint4_linear)"/>
<ellipse cx="89.0647" cy="46.9678" rx="26.9571" ry="5.32273" transform="rotate(15 89.0647 46.9678)" fill="#F1EFF3"/>
</g>
<ellipse cx="88.2321" cy="49.4111" rx="38.1176" ry="8.58505" transform="rotate(15 88.2321 49.4111)" fill="url(#paint5_linear)"/>
<ellipse cx="88.2321" cy="49.4111" rx="38.1176" ry="8.58505" transform="rotate(15 88.2321 49.4111)" fill="#9094A7"/>
<ellipse opacity="0.5" cx="86.8652" cy="55.5202" rx="3.26232" ry="1.37361" transform="rotate(15 86.8652 55.5202)" fill="white"/>
<ellipse opacity="0.5" rx="3.26233" ry="1.37361" transform="matrix(0.992546 0.12187 -0.121869 0.992546 105.464 59.0818)" fill="white"/>
<ellipse opacity="0.5" rx="3.26232" ry="1.37361" transform="matrix(-0.920505 -0.390731 -0.390731 0.920505 69.6407 49.4828)" fill="white"/>
<ellipse opacity="0.5" rx="3.26232" ry="1.37361" transform="matrix(-0.978148 -0.207912 -0.207912 0.978148 118.407 57.217)" fill="white"/>
<ellipse opacity="0.5" rx="3.26232" ry="1.37361" transform="matrix(-0.978148 -0.207912 -0.207912 0.978148 58.0373 41.0411)" fill="white"/>
<mask id="path-18-inside-1" fill="white">
<path fill-rule="evenodd" clip-rule="evenodd" d="M62.2344 39.8856C65.0309 27.3718 76.2035 18.0192 89.5605 18.0192C105.024 18.0192 117.56 30.5552 117.56 46.0192C117.56 49.2361 117.018 52.3263 116.02 55.2033L114.548 54.7841C114.79 54.5894 114.948 54.3664 115.015 54.1145C115.776 51.275 104.735 45.8495 90.3544 41.9962C76.0907 38.1742 63.8989 37.3346 62.9591 40.092L62.2344 39.8856Z"/>
</mask>
<path fill-rule="evenodd" clip-rule="evenodd" d="M62.2344 39.8856C65.0309 27.3718 76.2035 18.0192 89.5605 18.0192C105.024 18.0192 117.56 30.5552 117.56 46.0192C117.56 49.2361 117.018 52.3263 116.02 55.2033L114.548 54.7841C114.79 54.5894 114.948 54.3664 115.015 54.1145C115.776 51.275 104.735 45.8495 90.3544 41.9962C76.0907 38.1742 63.8989 37.3346 62.9591 40.092L62.2344 39.8856Z" fill="url(#paint6_linear)"/>
<path d="M62.2344 39.8856L61.2584 39.6675L61.0525 40.5888L61.9605 40.8473L62.2344 39.8856ZM116.02 55.2033L115.746 56.165L116.654 56.4238L116.964 55.5311L116.02 55.2033ZM114.548 54.7841L113.921 54.0048L112.415 55.2164L114.274 55.7458L114.548 54.7841ZM115.015 54.1145L115.981 54.3734L115.981 54.3734L115.015 54.1145ZM90.3544 41.9962L90.6132 41.0302L90.3544 41.9962ZM62.9591 40.092L62.6852 41.0537L63.5991 41.314L63.9056 40.4146L62.9591 40.092ZM89.5605 17.0192C75.7252 17.0192 64.1549 26.7066 61.2584 39.6675L63.2103 40.1037C65.907 28.037 76.6818 19.0192 89.5605 19.0192V17.0192ZM118.56 46.0192C118.56 30.0029 105.577 17.0192 89.5605 17.0192V19.0192C104.472 19.0192 116.56 31.1075 116.56 46.0192H118.56ZM116.964 55.5311C117.999 52.5501 118.56 49.3492 118.56 46.0192H116.56C116.56 49.123 116.037 52.1024 115.075 54.8754L116.964 55.5311ZM114.274 55.7458L115.746 56.165L116.293 54.2415L114.822 53.8223L114.274 55.7458ZM115.174 55.5633C115.543 55.2668 115.847 54.8736 115.981 54.3734L114.049 53.8557C114.048 53.8592 114.036 53.9121 113.921 54.0048L115.174 55.5633ZM115.981 54.3734C116.172 53.6625 115.958 52.9825 115.621 52.4212C115.284 51.8612 114.768 51.3192 114.148 50.7992C112.906 49.7555 111.065 48.649 108.804 47.538C104.267 45.3086 97.8467 42.9685 90.6132 41.0302L90.0956 42.9621C97.2427 44.8772 103.533 47.1765 107.922 49.333C110.124 50.415 111.799 51.4382 112.862 52.3308C113.396 52.779 113.729 53.1567 113.907 53.452C113.993 53.5957 114.03 53.6992 114.044 53.7645C114.057 53.8246 114.051 53.8497 114.049 53.8557L115.981 54.3734ZM90.6132 41.0302C83.4383 39.1077 76.7589 37.9278 71.7294 37.5792C69.2223 37.4054 67.0756 37.4345 65.4661 37.7023C64.6638 37.8359 63.9414 38.0371 63.3614 38.3372C62.785 38.6355 62.2446 39.0884 62.0126 39.7693L63.9056 40.4146C63.9085 40.4061 63.9547 40.2821 64.2806 40.1135C64.6029 39.9467 65.0987 39.791 65.7944 39.6752C67.1809 39.4444 69.1499 39.4052 71.5911 39.5744C76.4584 39.9118 83.0068 41.0627 90.0956 42.9621L90.6132 41.0302ZM61.9605 40.8473L62.6852 41.0537L63.233 39.1302L62.5083 38.9238L61.9605 40.8473Z" fill="white" mask="url(#path-18-inside-1)"/>
<path d="M75.3809 29.0193C76.3809 27.8526 79.5809 25.4193 84.3809 25.0193" stroke="white" stroke-linecap="round"/>
<path d="M72.2248 32.1462C72.3332 31.7959 72.7916 30.9801 73.7588 30.5193" stroke="white" stroke-linecap="round"/>
<path d="M87.3811 52.7374C94.5616 54.7834 101.239 56.0652 106.236 56.479C108.73 56.6856 110.832 56.6784 112.376 56.4304C113.147 56.3067 113.808 56.1187 114.317 55.8475C114.826 55.576 115.232 55.1923 115.383 54.6618C115.534 54.1312 115.391 53.5912 115.102 53.0921C114.813 52.5937 114.35 52.0853 113.76 51.5739C112.578 50.5492 110.796 49.4353 108.568 48.2962C104.103 46.0142 97.7529 43.5837 90.5724 41.5377C83.3919 39.4916 76.7143 38.2099 71.7176 37.796C69.2235 37.5894 67.1219 37.5967 65.5775 37.8446C64.8067 37.9683 64.1455 38.1564 63.637 38.4276C63.1279 38.6991 62.722 39.0827 62.5708 39.6133C62.4196 40.1439 62.5624 40.6838 62.8519 41.1829C63.141 41.6814 63.6039 42.1897 64.1936 42.7011C65.3754 43.7259 67.1575 44.8398 69.386 45.9788C73.8503 48.2608 80.2006 50.6913 87.3811 52.7374Z" stroke="white"/>
<path fill-rule="evenodd" clip-rule="evenodd" d="M112.098 56.1041C107.505 56.7059 98.1321 55.3664 87.6576 52.3881C77.1721 49.4066 68.4898 45.6095 64.9072 42.6797C69.7534 42.2669 78.6267 43.4837 88.4908 46.1268C99.7895 49.1543 109.027 53.1523 112.098 56.1041Z" fill="#B9BFDD"/>
<mask id="path-24-inside-2" fill="white">
<path fill-rule="evenodd" clip-rule="evenodd" d="M107.771 105.489C107.431 104.809 107.069 104.136 106.684 103.469C105.056 100.649 103.117 98.1197 100.934 95.9009C100.728 94.2226 99.7971 92.4316 98.2358 91.0079C96.1614 89.1164 93.5442 88.3932 91.5244 88.9524C81.0255 83.5016 68.1612 83.1254 56.9929 88.912C55.6382 88.7526 54.1357 88.9693 52.6891 89.6132C50.0674 90.7803 48.366 93.0228 48.1684 95.2361C45.1394 98.156 42.6741 101.523 40.8174 105.17L107.771 105.489Z"/>
</mask>
<path fill-rule="evenodd" clip-rule="evenodd" d="M107.771 105.489C107.431 104.809 107.069 104.136 106.684 103.469C105.056 100.649 103.117 98.1197 100.934 95.9009C100.728 94.2226 99.7971 92.4316 98.2358 91.0079C96.1614 89.1164 93.5442 88.3932 91.5244 88.9524C81.0255 83.5016 68.1612 83.1254 56.9929 88.912C55.6382 88.7526 54.1357 88.9693 52.6891 89.6132C50.0674 90.7803 48.366 93.0228 48.1684 95.2361C45.1394 98.156 42.6741 101.523 40.8174 105.17L107.771 105.489Z" fill="url(#paint7_linear)"/>
<path d="M106.684 103.469L105.818 103.969V103.969L106.684 103.469ZM107.771 105.489L107.766 106.489L109.392 106.497L108.666 105.042L107.771 105.489ZM100.934 95.9009L99.9419 96.0231L99.9833 96.36L100.221 96.6021L100.934 95.9009ZM98.2358 91.0079L98.9095 90.269L98.2358 91.0079ZM91.5244 88.9524L91.0637 89.8399L91.4125 90.021L91.7913 89.9161L91.5244 88.9524ZM56.9929 88.912L56.876 89.9052L57.1806 89.941L57.4529 89.7999L56.9929 88.912ZM52.6891 89.6132L52.2824 88.6997L52.6891 89.6132ZM48.1684 95.2361L48.8624 95.9561L49.1312 95.6969L49.1644 95.325L48.1684 95.2361ZM40.8174 105.17L39.9263 104.716L39.19 106.162L40.8126 106.17L40.8174 105.17ZM105.818 103.969C106.193 104.618 106.546 105.274 106.876 105.936L108.666 105.042C108.317 104.344 107.945 103.653 107.55 102.969L105.818 103.969ZM100.221 96.6021C102.345 98.7611 104.233 101.222 105.818 103.969L107.55 102.969C105.879 100.075 103.888 97.4784 101.647 95.1997L100.221 96.6021ZM97.562 91.7468C98.969 93.0298 99.7679 94.6098 99.9419 96.0231L101.927 95.7787C101.688 93.8353 100.625 91.8335 98.9095 90.269L97.562 91.7468ZM91.7913 89.9161C93.4031 89.4699 95.6768 90.0279 97.562 91.7468L98.9095 90.269C96.646 88.205 93.6852 87.3165 91.2576 87.9886L91.7913 89.9161ZM57.4529 89.7999C68.3214 84.1686 80.8421 84.5331 91.0637 89.8399L91.9852 88.0649C81.2089 82.4701 68.001 82.0822 56.5329 88.0241L57.4529 89.7999ZM53.0958 90.5268C54.3858 89.9526 55.7079 89.7677 56.876 89.9052L57.1097 87.9189C55.5685 87.7376 53.8857 87.986 52.2824 88.6997L53.0958 90.5268ZM49.1644 95.325C49.3233 93.5452 50.7339 91.5782 53.0958 90.5268L52.2824 88.6997C49.4009 89.9823 47.4086 92.5004 47.1723 95.1472L49.1644 95.325ZM41.7085 105.623C43.5157 102.074 45.915 98.7973 48.8624 95.9561L47.4743 94.5162C44.3639 97.5146 41.8324 100.972 39.9263 104.716L41.7085 105.623ZM107.776 104.489L40.8222 104.17L40.8126 106.17L107.766 106.489L107.776 104.489Z" fill="url(#paint8_radial)" mask="url(#path-24-inside-2)"/>
<ellipse cx="52.81" cy="93.186" rx="3.68155" ry="1.40023" transform="rotate(-37.2926 52.81 93.186)" fill="#54555B"/>
<ellipse cx="95.9033" cy="94.2487" rx="4.14609" ry="1.57691" transform="rotate(47.1034 95.9033 94.2487)" fill="#54555B"/>
<rect x="37.0005" y="103" width="74" height="3" fill="#1B1B1B"/>
<path d="M70.5005 92.5C66.0005 91.5 62.3795 88.4074 62.3795 84.2037C62.3795 80 66.5625 83.7778 64.471 85.4815C62.3795 87.1852 58.9026 85.2156 57.36 82.0741C55.2685 77.8148 56.1051 71.8519 56.5234 71" stroke="#61636D" stroke-linecap="round"/>
</g>
<defs>
<filter id="filter0_i" x="63.2649" y="46.0193" width="47.2156" height="21.4489" filterUnits="userSpaceOnUse" color-interpolation-filters="sRGB">
<feFlood flood-opacity="0" result="BackgroundImageFix"/>
<feBlend mode="normal" in="SourceGraphic" in2="BackgroundImageFix" result="shape"/>
<feColorMatrix in="SourceAlpha" type="matrix" values="0 0 0 0 0 0 0 0 0 0 0 0 0 0 0 0 0 0 127 0" result="hardAlpha"/>
<feOffset dy="-1"/>
<feGaussianBlur stdDeviation="2"/>
<feComposite in2="hardAlpha" operator="arithmetic" k2="-1" k3="1"/>
<feColorMatrix type="matrix" values="0 0 0 0 1 0 0 0 0 1 0 0 0 0 1 0 0 0 0.5 0"/>
<feBlend mode="normal" in2="shape" result="effect1_innerShadow"/>
</filter>
<filter id="filter1_i" x="51.9365" y="37.5112" width="72.0816" height="28.1001" filterUnits="userSpaceOnUse" color-interpolation-filters="sRGB">
<feFlood flood-opacity="0" result="BackgroundImageFix"/>
<feBlend mode="normal" in="SourceGraphic" in2="BackgroundImageFix" result="shape"/>
<feColorMatrix in="SourceAlpha" type="matrix" values="0 0 0 0 0 0 0 0 0 0 0 0 0 0 0 0 0 0 127 0" result="hardAlpha"/>
<feOffset dy="-1"/>
<feGaussianBlur stdDeviation="1.5"/>
<feComposite in2="hardAlpha" operator="arithmetic" k2="-1" k3="1"/>
<feColorMatrix type="matrix" values="0 0 0 0 0.917647 0 0 0 0 0.917647 0 0 0 0 0.937255 0 0 0 0.464099 0"/>
<feBlend mode="normal" in2="shape" result="effect1_innerShadow"/>
</filter>
<filter id="filter2_i" x="62.989" y="38.3005" width="52.1512" height="18.3346" filterUnits="userSpaceOnUse" color-interpolation-filters="sRGB">
<feFlood flood-opacity="0" result="BackgroundImageFix"/>
<feBlend mode="normal" in="SourceGraphic" in2="BackgroundImageFix" result="shape"/>
<feColorMatrix in="SourceAlpha" type="matrix" values="0 0 0 0 0 0 0 0 0 0 0 0 0 0 0 0 0 0 127 0" result="hardAlpha"/>
<feOffset dy="1"/>
<feGaussianBlur stdDeviation="0.5"/>
<feComposite in2="hardAlpha" operator="arithmetic" k2="-1" k3="1"/>
<feColorMatrix type="matrix" values="0 0 0 0 1 0 0 0 0 1 0 0 0 0 1 0 0 0 0.5 0"/>
<feBlend mode="normal" in2="shape" result="effect1_innerShadow"/>
</filter>
<linearGradient id="paint0_linear" x1="61.4148" y1="55.1032" x2="51.3975" y2="87.1841" gradientUnits="userSpaceOnUse">
<stop stop-color="#E1E6FF"/>
<stop offset="1" stop-color="white" stop-opacity="0.01"/>
</linearGradient>
<linearGradient id="paint1_linear" x1="68.6171" y1="56.6613" x2="59.4294" y2="86.0852" gradientUnits="userSpaceOnUse">
<stop stop-color="#F8F9FF"/>
<stop offset="1" stop-color="white" stop-opacity="0.01"/>
</linearGradient>
<linearGradient id="paint2_linear" x1="50.1806" y1="28.8043" x2="44.9247" y2="48.0095" gradientUnits="userSpaceOnUse">
<stop stop-color="#F8F7F9"/>
<stop offset="1" stop-color="#EFECF1"/>
</linearGradient>
<linearGradient id="paint3_linear" x1="38.1556" y1="33.188" x2="34.9864" y2="44.9802" gradientUnits="userSpaceOnUse">
<stop stop-color="white" stop-opacity="0.01"/>
<stop offset="1" stop-color="white"/>
</linearGradient>
<linearGradient id="paint4_linear" x1="80.3054" y1="55.1861" x2="88.7581" y2="32.1305" gradientUnits="userSpaceOnUse">
<stop stop-color="#9F8EB0"/>
<stop offset="0.108468" stop-color="#9A8FA5"/>
<stop offset="0.710984" stop-color="#ADA6B4"/>
<stop offset="1" stop-color="#C7C6CA"/>
</linearGradient>
<linearGradient id="paint5_linear" x1="46.1437" y1="39.3549" x2="46.0376" y2="59.266" gradientUnits="userSpaceOnUse">
<stop stop-color="#F8F7F9"/>
<stop offset="1" stop-color="#EFECF1"/>
</linearGradient>
<linearGradient id="paint6_linear" x1="93.9224" y1="4.93298" x2="83.9224" y2="44.433" gradientUnits="userSpaceOnUse">
<stop stop-color="white"/>
<stop offset="1" stop-color="white" stop-opacity="0"/>
</linearGradient>
<linearGradient id="paint7_linear" x1="74.2942" y1="84.7167" x2="74" y2="103.5" gradientUnits="userSpaceOnUse">
<stop offset="0.172225" stop-color="#4E5160"/>
<stop offset="1" stop-color="#444652" stop-opacity="0"/>
</linearGradient>
<radialGradient id="paint8_radial" cx="0" cy="0" r="1" gradientUnits="userSpaceOnUse" gradientTransform="translate(74 81.5) rotate(90) scale(23.5 75.7463)">
<stop stop-color="white" stop-opacity="0.23"/>
<stop offset="1" stop-color="white" stop-opacity="0"/>
</radialGradient>
</defs>
</svg>
