<svg width="12" height="12" viewBox="0 0 12 12" fill="none" xmlns="http://www.w3.org/2000/svg">
	<path fill-rule="evenodd" clip-rule="evenodd" d="M6 12C9.31371 12 12 9.31371 12 6C12 2.68629 9.31371 0 6 0C2.68629 0 0 2.68629 0 6C0 9.31371 2.68629 12 6 12Z" fill="#FFC438" />
	<path d="M6.00014 3C6.25656 3 6.46789 3.19302 6.49677 3.44169L6.50014 3.5V7.5C6.50014 7.77614 6.27628 8 6.00014 8C5.74372 8 5.53238 7.80698 5.5035 7.55831L5.50014 7.5V3.5C5.50014 3.22386 5.72399 3 6.00014 3Z" fill="white" />
	<path fill-rule="evenodd" clip-rule="evenodd" d="M5.99981 9.5C6.27595 9.5 6.49981 9.27614 6.49981 9C6.49981 8.72386 6.27595 8.5 5.99981 8.5C5.72367 8.5 5.49981 8.72386 5.49981 9C5.49981 9.27614 5.72367 9.5 5.99981 9.5Z" fill="white" />
</svg>
