<?xml version="1.0" encoding="UTF-8"?>
<svg width="14px" height="14px" viewBox="0 0 14 14" version="1.1" xmlns="http://www.w3.org/2000/svg" xmlns:xlink="http://www.w3.org/1999/xlink">
    <title>ethereum备份@2x</title>
    <g id="V1.2-0126" stroke="none" stroke-width="1" fill="none" fill-rule="evenodd">
        <g id="1-Shuttle-In-交易对" transform="translate(-1716.000000, -448.000000)">
            <g id="ethereum备份" transform="translate(1716.000000, 448.000000)">
                <path d="M6.15,0.83715789 C6.67598183,0.533482139 7.32401817,0.533482139 7.85,0.83715789 L7.85,0.83715789 L11.9121778,3.18245735 C12.1751687,3.33429523 12.3876687,3.55051815 12.534421,3.80470054 C12.6811733,4.05888293 12.7621778,4.35102479 12.7621778,4.65470054 L12.7621778,4.65470054 L12.7621778,9.34529946 C12.7621778,9.95265096 12.4381597,10.5138669 11.9121778,10.8175426 L11.9121778,10.8175426 L7.85,13.1628421 C7.32401817,13.4665179 6.67598183,13.4665179 6.15,13.1628421 L6.15,13.1628421 L2.08782217,10.8175426 C1.56184034,10.5138669 1.23782217,9.95265096 1.23782217,9.34529946 L1.23782217,9.34529946 L1.23782217,4.65470054 C1.23782217,4.04734904 1.56184034,3.4861331 2.08782217,3.18245735 L2.08782217,3.18245735 Z" id="多边形备份" stroke="#FFFFFF" stroke-width="0.6" fill="#FEA02E"></path>
                <path d="M6.74423224,3 L7.47711255,3.18129767 L7.27567983,3.87533731 L8.21239493,4.107059 L8.30148448,4.13055113 L8.50331077,3.43515542 L9.23623471,3.61646389 L9.01413733,4.38170395 C9.13924532,4.43760176 9.25816947,4.50459836 9.36923103,4.58174801 C9.63117307,4.77057743 9.82346606,5.02870686 9.9198254,5.32086766 C10.0170484,5.59880407 10.0260437,5.89662907 9.94574801,6.17913545 C9.8716256,6.43635722 9.71972516,6.66878507 9.50780409,6.84924785 C9.27069776,7.05019634 8.97547179,7.18437187 8.65707092,7.23588329 C8.99119568,7.41118355 9.25473594,7.68086515 9.4081677,8.00447041 L9.4081677,8.00447041 C9.55337517,8.32284649 9.57324864,8.67188078 9.47013845,8.99814744 C9.39252465,9.2696504 9.24804888,9.52093941 9.0479712,9.73242969 C8.87380857,9.92425658 8.65285797,10.0752216 8.40325244,10.1729352 C8.14554545,10.2629028 7.87114578,10.3050512 7.59576859,10.2969667 C7.49768218,10.295612 7.39984033,10.2896552 7.30251259,10.2791343 L7.30251259,10.2791343 L7.09329409,11 L6.3603847,10.8186951 L6.55517729,10.1475342 L5.52897907,9.8936764 L5.33418648,10.5648374 L4.60129163,10.3835361 L4.79608422,9.71237513 L4,9.51544227 L5.74671531,3.49710678 L6.54279953,3.69403964 L6.74423224,3 Z M5.94284652,6.89502349 L5.35184421,8.93133139 L6.80723566,9.29136164 C6.96317648,9.33310317 7.12265765,9.36260958 7.28397846,9.3795662 C7.34277903,9.38288185 7.40174692,9.38279091 7.46053517,9.37929392 C7.56334448,9.37560037 7.66599934,9.35713282 7.76554194,9.32446911 C7.91081937,9.27321585 8.04257294,9.18408011 8.14737596,9.06615934 C8.2692547,8.93129442 8.35787796,8.76912116 8.40510292,8.59459153 C8.4688905,8.39119066 8.47054532,8.17630499 8.40982412,7.97972007 C8.34761977,7.7885676 8.2234683,7.62825529 8.05713694,7.52433776 L8.05713694,7.52433776 L8.00765347,7.49370573 C7.81642704,7.39045853 7.6114291,7.31068235 7.39784829,7.25639638 L7.39784829,7.25639638 L7.39823797,7.25505374 L5.94284652,6.89502349 Z M6.68179814,4.34895387 L6.16452694,6.13122006 L6.72447635,6.26973861 L6.72486603,6.26839597 L7.59778095,6.48433497 C7.76107959,6.52294474 7.92921849,6.5413146 8.09776791,6.53896059 C8.15149308,6.53490931 8.20477663,6.52686286 8.25709999,6.51489954 C8.38534382,6.48850121 8.50709792,6.42882416 8.61072059,6.34160837 C8.75332929,6.21533964 8.85558177,6.04718417 8.90213142,5.86241419 C8.95907041,5.68110649 8.96483462,5.49003182 8.91874692,5.3125222 C8.88277942,5.17849999 8.80769523,5.06163935 8.70336005,4.97730341 C8.67903038,4.95596701 8.65300691,4.9363398 8.62550721,4.91858589 C8.46464373,4.82746136 8.29250175,4.75742049 8.11276084,4.70996353 C8.0239068,4.6813635 7.9254608,4.65665047 7.81818483,4.63008409 L7.81818483,4.63008409 L6.68179814,4.34895387 Z" id="形状结合" fill="#FFFFFF" fill-rule="nonzero"></path>
            </g>
        </g>
    </g>
</svg>