<?xml version="1.0" encoding="UTF-8"?>
<svg width="14px" height="14px" viewBox="0 0 14 14" version="1.1" xmlns="http://www.w3.org/2000/svg" xmlns:xlink="http://www.w3.org/1999/xlink">
    <g id="V1.2-0126" stroke="none" stroke-width="1" fill="none" fill-rule="evenodd">
        <g id="1-Shuttle-In-交易对" transform="translate(-1685.000000, -448.000000)">
            <g id="ETH-tag备份" transform="translate(1685.000000, 448.000000)">
                <path d="M6.15,0.83715789 C6.67598183,0.533482139 7.32401817,0.533482139 7.85,0.83715789 L7.85,0.83715789 L11.9121778,3.18245735 C12.1751687,3.33429523 12.3876687,3.55051815 12.534421,3.80470054 C12.6811733,4.05888293 12.7621778,4.35102479 12.7621778,4.65470054 L12.7621778,4.65470054 L12.7621778,9.34529946 C12.7621778,9.95265096 12.4381597,10.5138669 11.9121778,10.8175426 L11.9121778,10.8175426 L7.85,13.1628421 C7.32401817,13.4665179 6.67598183,13.4665179 6.15,13.1628421 L6.15,13.1628421 L2.08782217,10.8175426 C1.56184034,10.5138669 1.23782217,9.95265096 1.23782217,9.34529946 L1.23782217,9.34529946 L1.23782217,4.65470054 C1.23782217,4.04734904 1.56184034,3.4861331 2.08782217,3.18245735 L2.08782217,3.18245735 Z" id="多边形备份" stroke="#FFFFFF" stroke-width="0.6" fill="#6F86FF"></path>
                <g id="ethereum" transform="translate(2.419825, 2.621213)">
                    <rect id="矩形" fill="#000000" fill-rule="nonzero" opacity="0" x="0" y="0" width="9" height="9"></rect>
                    <polygon id="形状" fill="#FFFFFF" fill-rule="nonzero" points="7.17011719 4.584375 4.5 6.215625 1.828125 4.584375 4.5 0"></polygon>
                    <polygon id="路径" fill="#FFFFFF" points="4.5 6.73945312 1.828125 5.10820312 4.5 9 7.171875 5.10820312 4.5 6.73945312"></polygon>
                    <polygon id="路径-3" fill="#FFFFFF" points="1.75970721 5.00626802 4.5 6.73601174 4.5 9"></polygon>
                    <polygon id="路径-4" fill="#EFF2FF" points="4.5 0 4.5 6.215625 7.171875 4.584375"></polygon>
                    <polygon id="路径-6" fill="#ECEFFF" points="1.828125 4.584375 4.5 3.66701531 4.5 6.215625"></polygon>
                    <polygon id="路径-7" fill="#C2CCFF" points="4.5 3.66701531 4.5 6.215625 7.171875 4.584375"></polygon>
                </g>
            </g>
        </g>
    </g>
</svg>