<?xml version="1.0" encoding="UTF-8"?>
<svg width="20px" height="20px" viewBox="0 0 20 20" version="1.1" xmlns="http://www.w3.org/2000/svg" xmlns:xlink="http://www.w3.org/1999/xlink">
    <g id="V1.3-0304" stroke="none" stroke-width="1" fill="none" fill-rule="evenodd">
        <g id="1-Shuttle-In-交易对" transform="translate(-270.000000, -234.000000)">
            <g id="icon_dex备份-2" transform="translate(270.000000, 234.000000)">
                <circle id="椭圆形" fill="#FFFFFF" cx="10" cy="10" r="10"></circle>
                <g id="icon_Huobi" fill-rule="nonzero">
                    <g id="logo.d37d94cb" transform="translate(5.000000, 2.000000)">
                        <path d="M6.59884615,4.61664231 C6.59884615,2.46330577 5.52069231,0.610909615 4.70105769,0.00777467308 C4.69715769,0.00651023077 4.63870962,-0.0263650962 4.64390192,0.0596163462 C4.64390192,0.0608809615 4.64260385,0.0608809615 4.64260385,0.0621455769 C4.57505769,4.22087308 2.39282308,5.34748269 1.19259231,6.86607692 C-1.57677115,10.3698462 0.999046154,14.2111731 3.62162885,14.9205 C5.08944231,15.3175385 3.2826,14.2175192 3.05008846,11.8934423 C2.76821538,9.08515385 6.59884615,6.94194231 6.59884615,4.61664231 Z" id="路径" fill="#2D3338"></path>
                        <path d="M7.87251923,6.03265385 C7.85561538,6.02123077 7.83225,6.01367308 7.81534615,6.04021154 C7.76988462,6.56371154 7.22042308,7.68398077 6.52419231,8.71194231 C4.16270769,12.1992692 5.50842115,13.881 6.26573077,14.7837692 C6.70476923,15.3085385 6.26573077,14.7837692 7.36332692,14.2476923 C7.44905769,14.2059231 9.50659615,13.0831154 9.72871154,10.5251538 C9.94563462,8.04813462 8.41678846,6.48657692 7.87251923,6.03265385 Z" id="路径" fill="#01943F"></path>
                    </g>
                </g>
            </g>
        </g>
    </g>
</svg>