<?xml version="1.0" encoding="UTF-8"?>
<svg width="14px" height="14px" viewBox="0 0 14 14" version="1.1" xmlns="http://www.w3.org/2000/svg" xmlns:xlink="http://www.w3.org/1999/xlink">
    <title>Huobi tag@2x</title>
    <g id="V1.3-0304" stroke="none" stroke-width="1" fill="none" fill-rule="evenodd">
        <g id="1-Shuttle-In-交易对" transform="translate(-1784.000000, -448.000000)">
            <g id="Huobi-tag" transform="translate(1784.000000, 448.000000)">
                <path d="M8,0.577350269 L12.0621778,2.92264973 C12.68098,3.27991532 13.0621778,3.94016936 13.0621778,4.65470054 L13.0621778,9.34529946 C13.0621778,10.0598306 12.68098,10.7200847 12.0621778,11.0773503 L8,13.4226497 C7.38119785,13.7799153 6.61880215,13.7799153 6,13.4226497 L1.93782217,11.0773503 C1.31902002,10.7200847 0.937822174,10.0598306 0.937822174,9.34529946 L0.937822174,4.65470054 C0.937822174,3.94016936 1.31902002,3.27991532 1.93782217,2.92264973 L6,0.577350269 C6.61880215,0.220084679 7.38119785,0.220084679 8,0.577350269 Z" id="多边形" fill="#FFFFFF"></path>
                <g id="icon_dex备份" transform="translate(2.000000, 2.000000)" fill-rule="nonzero">
                    <g id="logo.d37d94cb" transform="translate(2.000000, 0.500000)">
                        <path d="M3.95930769,2.76998538 C3.95930769,1.47798346 3.31241538,0.366545769 2.82063462,0.00466480385 C2.81829462,0.00390613846 2.78322577,-0.0158190577 2.78634115,0.0357698077 C2.78634115,0.0365285769 2.78556231,0.0365285769 2.78556231,0.0372873462 C2.74503462,2.53252385 1.43569385,3.20848962 0.715555385,4.11964615 C-0.946062692,6.22190769 0.599427692,8.52670385 2.17297731,8.9523 C3.05366538,9.19052308 1.96956,8.53051154 1.83005308,7.13606538 C1.66092923,5.45109231 3.95930769,4.16516538 3.95930769,2.76998538 Z" id="路径" fill="#2D3338"></path>
                        <path d="M4.72351154,3.61959231 C4.71336923,3.61273846 4.69935,3.60820385 4.68920769,3.62412692 C4.66193077,3.93822692 4.33225385,4.61038846 3.91451538,5.22716538 C2.49762462,7.31956154 3.30505269,8.3286 3.75943846,8.87026154 C4.02286154,9.18512308 3.75943846,8.87026154 4.41799615,8.54861538 C4.46943462,8.52355385 5.70395769,7.84986923 5.83722692,6.31509231 C5.96738077,4.82888077 5.05007308,3.89194615 4.72351154,3.61959231 Z" id="路径" fill="#01943F"></path>
                    </g>
                </g>
            </g>
        </g>
    </g>
</svg>