<?xml version="1.0" encoding="UTF-8"?>
<svg width="20px" height="20px" viewBox="0 0 20 20" version="1.1" xmlns="http://www.w3.org/2000/svg" xmlns:xlink="http://www.w3.org/1999/xlink">
    <g id="V1.3-0304" stroke="none" stroke-width="1" fill="none" fill-rule="evenodd">
        <g id="1-Shuttle-In-交易对" transform="translate(-270.000000, -234.000000)" fill-rule="nonzero">
            <g id="icon_Huobi" transform="translate(270.000000, 234.000000)">
                <g id="logo.d37d94cb" transform="translate(4.000000, 1.000000)">
                    <path d="M7.91861538,5.53997077 C7.91861538,2.95596692 6.62483077,0.733091538 5.64126923,0.00932960769 C5.63658923,0.00781227692 5.56645154,-0.0316381154 5.57268231,0.0715396154 C5.57268231,0.0730571538 5.57112462,0.0730571538 5.57112462,0.0745746923 C5.49006923,5.06504769 2.87138769,6.41697923 1.43111077,8.23929231 C-1.89212538,12.4438154 1.19885538,17.0534077 4.34595462,17.9046 C6.10733077,18.3810462 3.93912,17.0610231 3.66010615,14.2721308 C3.32185846,10.9021846 7.91861538,8.33033077 7.91861538,5.53997077 Z" id="路径" fill="#2D3338"></path>
                    <path d="M9.44702308,7.23918462 C9.42673846,7.22547692 9.3987,7.21640769 9.37841538,7.24825385 C9.32386154,7.87645385 8.66450769,9.22077692 7.82903077,10.4543308 C4.99524923,14.6391231 6.61010538,16.6572 7.51887692,17.7405231 C8.04572308,18.3702462 7.51887692,17.7405231 8.83599231,17.0972308 C8.93886923,17.0471077 11.4079154,15.6997385 11.6744538,12.6301846 C11.9347615,9.65776154 10.1001462,7.78389231 9.44702308,7.23918462 Z" id="路径" fill="#01943F"></path>
                </g>
            </g>
        </g>
    </g>
</svg>