<svg width="28" height="28" viewBox="0 0 28 28" fill="none" xmlns="http://www.w3.org/2000/svg">
<g id="Property 1=OKT Tag">
<path id="&#229;&#164;&#154;&#232;&#190;&#185;&#229;&#189;&#162;&#229;&#164;&#135;&#228;&#187;&#189;" fill-rule="evenodd" clip-rule="evenodd" d="M11.9998 1.15455C13.2374 0.440019 14.7622 0.44002 15.9998 1.15455L24.1242 5.84515C25.3618 6.55968 26.1242 7.88019 26.1242 9.30925V18.6905C26.1242 20.1195 25.3618 21.44 24.1242 22.1546L15.9998 26.8452C14.7622 27.5597 13.2374 27.5597 11.9998 26.8451L3.87549 22.1546C2.63788 21.44 1.87549 20.1195 1.87549 18.6905V9.30925C1.87549 7.88019 2.63788 6.55968 3.87549 5.84515L11.9998 1.15455Z" fill="white"/>
<g id="okex-2 1">
<path id="Vector" d="M13.1389 13.139C13.7048 13.2776 14.2957 13.2776 14.8616 13.139C15.0198 12.4959 15.3509 11.9084 15.8192 11.4402C16.2874 10.9719 16.875 10.6408 17.518 10.4826C17.6484 9.94958 17.6559 9.39386 17.5399 8.85747C17.424 8.32108 17.1877 7.81806 16.8488 7.38639C16.51 6.95472 16.0775 6.6057 15.584 6.36569C15.0904 6.12569 14.5488 6.00098 14 6.00098C13.4513 6.00098 12.9096 6.12569 12.4161 6.36569C11.9226 6.6057 11.4901 6.95472 11.1512 7.38639C10.8124 7.81806 10.5761 8.32108 10.4601 8.85747C10.3442 9.39386 10.3517 9.94958 10.482 10.4826C11.1253 10.6406 11.7129 10.9717 12.1813 11.4399C12.6496 11.9082 12.9808 12.4958 13.1389 13.139Z" fill="#7ABDF7"/>
<path id="Vector_2" d="M14.8617 14.8608C14.2958 14.7222 13.7048 14.7222 13.139 14.8608C12.9808 15.5038 12.6497 16.0913 12.1814 16.5596C11.7131 17.0278 11.1256 17.359 10.4825 17.5171C10.3522 18.0502 10.3447 18.6059 10.4606 19.1423C10.5766 19.6787 10.8129 20.1817 11.1517 20.6134C11.4906 21.045 11.9231 21.3941 12.4166 21.6341C12.9101 21.8741 13.4517 21.9988 14.0005 21.9988C14.5493 21.9988 15.0909 21.8741 15.5844 21.6341C16.078 21.3941 16.5105 21.045 16.8493 20.6134C17.1882 20.1817 17.4245 19.6787 17.5404 19.1423C17.6564 18.6059 17.6489 18.0502 17.5185 17.5171C16.8753 17.3592 16.2877 17.0281 15.8193 16.5598C15.3509 16.0915 15.0198 15.5039 14.8617 14.8608Z" fill="#0D74F5"/>
<path id="Vector_3" d="M18.3797 10.3782C18.0896 10.3782 17.8005 10.4131 17.5187 10.4821C17.3608 11.1251 17.0297 11.7126 16.5615 12.1808C16.0933 12.649 15.5058 12.9801 14.8627 13.138C14.7241 13.7039 14.7241 14.2948 14.8627 14.8607C15.5058 15.0188 16.0933 15.3499 16.5615 15.8182C17.0297 16.2865 17.3607 16.874 17.5187 17.5171C18.0162 17.6386 18.5337 17.6532 19.0372 17.56C19.5407 17.4668 20.0187 17.2679 20.4397 16.9764C20.8607 16.6849 21.2151 16.3075 21.4795 15.869C21.7439 15.4305 21.9123 14.9409 21.9736 14.4325C22.0349 13.9242 21.9877 13.4086 21.8352 12.9198C21.6826 12.431 21.4281 11.9802 21.0884 11.597C20.7488 11.2137 20.3318 10.9069 19.8649 10.6967C19.398 10.4865 18.8918 10.3777 18.3797 10.3774V10.3782Z" fill="#4494F7"/>
<path id="Vector_4" d="M13.1392 14.8607C13.2777 14.2948 13.2777 13.7039 13.1392 13.138C12.4961 12.98 11.9085 12.649 11.4403 12.1808C10.972 11.7126 10.6408 11.1251 10.4828 10.482C9.94968 10.3517 9.39394 10.3442 8.85754 10.4601C8.32114 10.5761 7.8181 10.8124 7.38642 11.1512C6.95474 11.4901 6.60571 11.9226 6.3657 12.4161C6.12569 12.9096 6.00098 13.4512 6.00098 14C6.00098 14.5487 6.12569 15.0903 6.3657 15.5838C6.60571 16.0773 6.95474 16.5098 7.38642 16.8487C7.8181 17.1875 8.32114 17.4238 8.85754 17.5398C9.39394 17.6557 9.94968 17.6482 10.4828 17.5179C10.6407 16.8746 10.9718 16.2869 11.44 15.8185C11.9083 15.3501 12.496 15.0188 13.1392 14.8607Z" fill="#005CF4"/>
<path id="Vector_5" d="M14.8618 13.1388C15.5049 12.9806 16.0924 12.6495 16.5607 12.1812C17.0289 11.713 17.3601 11.1255 17.5182 10.4824C16.8752 10.6406 16.2876 10.9717 15.8194 11.44C15.3511 11.9082 15.02 12.4957 14.8618 13.1388Z" fill="#186EF9"/>
<path id="Vector_6" d="M14.8618 14.8608C15.0198 15.504 15.3509 16.0915 15.8192 16.5598C16.2875 17.0281 16.8751 17.3592 17.5182 17.5172C17.3601 16.8741 17.0289 16.2866 16.5607 15.8184C16.0924 15.3501 15.5049 15.019 14.8618 14.8608Z" fill="#0246F2"/>
<path id="Vector_7" d="M13.1388 13.1388C12.9807 12.4957 12.6495 11.9082 12.1813 11.44C11.713 10.9717 11.1255 10.6406 10.4824 10.4824C10.6406 11.1255 10.9717 11.713 11.44 12.1812C11.9082 12.6495 12.4958 12.9806 13.1388 13.1388Z" fill="#0046F8"/>
<path id="Vector_8" d="M13.1388 14.8608C12.4958 15.019 11.9082 15.3501 11.44 15.8184C10.9717 16.2866 10.6406 16.8741 10.4824 17.5172C11.1255 17.3591 11.713 17.0279 12.1813 16.5597C12.6495 16.0914 12.9807 15.5039 13.1388 14.8608Z" fill="#0729F1"/>
<path id="Vector_9" d="M13.1389 13.139C13.7048 13.2776 14.2957 13.2776 14.8616 13.139C15.0198 12.4959 15.3509 11.9084 15.8192 11.4402C16.2874 10.9719 16.875 10.6408 17.518 10.4826C17.6484 9.94958 17.6559 9.39386 17.5399 8.85747C17.424 8.32108 17.1877 7.81806 16.8488 7.38639C16.51 6.95472 16.0775 6.6057 15.584 6.36569C15.0904 6.12569 14.5488 6.00098 14 6.00098C13.4513 6.00098 12.9096 6.12569 12.4161 6.36569C11.9226 6.6057 11.4901 6.95472 11.1512 7.38639C10.8124 7.81806 10.5761 8.32108 10.4601 8.85747C10.3442 9.39386 10.3517 9.94958 10.482 10.4826C11.1253 10.6406 11.7129 10.9717 12.1813 11.4399C12.6496 11.9082 12.9808 12.4958 13.1389 13.139Z" fill="#7ABDF7"/>
<path id="Vector_10" d="M14.8617 14.8608C14.2958 14.7222 13.7048 14.7222 13.139 14.8608C12.9808 15.5038 12.6497 16.0913 12.1814 16.5596C11.7131 17.0278 11.1256 17.359 10.4825 17.5171C10.3522 18.0502 10.3447 18.6059 10.4606 19.1423C10.5766 19.6787 10.8129 20.1817 11.1517 20.6134C11.4906 21.045 11.9231 21.3941 12.4166 21.6341C12.9101 21.8741 13.4517 21.9988 14.0005 21.9988C14.5493 21.9988 15.0909 21.8741 15.5844 21.6341C16.078 21.3941 16.5105 21.045 16.8493 20.6134C17.1882 20.1817 17.4245 19.6787 17.5404 19.1423C17.6564 18.6059 17.6489 18.0502 17.5185 17.5171C16.8753 17.3592 16.2877 17.0281 15.8193 16.5598C15.3509 16.0915 15.0198 15.5039 14.8617 14.8608Z" fill="#0D74F5"/>
<path id="Vector_11" d="M18.3797 10.3782C18.0896 10.3782 17.8005 10.4131 17.5187 10.4821C17.3608 11.1251 17.0297 11.7126 16.5615 12.1808C16.0933 12.649 15.5058 12.9801 14.8627 13.138C14.7241 13.7039 14.7241 14.2948 14.8627 14.8607C15.5058 15.0188 16.0933 15.3499 16.5615 15.8182C17.0297 16.2865 17.3607 16.874 17.5187 17.5171C18.0162 17.6386 18.5337 17.6532 19.0372 17.56C19.5407 17.4668 20.0187 17.2679 20.4397 16.9764C20.8607 16.6849 21.2151 16.3075 21.4795 15.869C21.7439 15.4305 21.9123 14.9409 21.9736 14.4325C22.0349 13.9242 21.9877 13.4086 21.8352 12.9198C21.6826 12.431 21.4281 11.9802 21.0884 11.597C20.7488 11.2137 20.3318 10.9069 19.8649 10.6967C19.398 10.4865 18.8918 10.3777 18.3797 10.3774V10.3782Z" fill="#4494F7"/>
<path id="Vector_12" d="M13.1392 14.8607C13.2777 14.2948 13.2777 13.7039 13.1392 13.138C12.4961 12.98 11.9085 12.649 11.4403 12.1808C10.972 11.7126 10.6408 11.1251 10.4828 10.482C9.94968 10.3517 9.39394 10.3442 8.85754 10.4601C8.32114 10.5761 7.8181 10.8124 7.38642 11.1512C6.95474 11.4901 6.60571 11.9226 6.3657 12.4161C6.12569 12.9096 6.00098 13.4512 6.00098 14C6.00098 14.5487 6.12569 15.0903 6.3657 15.5838C6.60571 16.0773 6.95474 16.5098 7.38642 16.8487C7.8181 17.1875 8.32114 17.4238 8.85754 17.5398C9.39394 17.6557 9.94968 17.6482 10.4828 17.5179C10.6407 16.8746 10.9718 16.2869 11.44 15.8185C11.9083 15.3501 12.496 15.0188 13.1392 14.8607Z" fill="#005CF4"/>
<path id="Vector_13" d="M14.8618 13.1388C15.5049 12.9806 16.0924 12.6495 16.5607 12.1812C17.0289 11.713 17.3601 11.1255 17.5182 10.4824C16.8752 10.6406 16.2876 10.9717 15.8194 11.44C15.3511 11.9082 15.02 12.4957 14.8618 13.1388Z" fill="#186EF9"/>
<path id="Vector_14" d="M14.8618 14.8608C15.0198 15.504 15.3509 16.0915 15.8192 16.5598C16.2875 17.0281 16.8751 17.3592 17.5182 17.5172C17.3601 16.8741 17.0289 16.2866 16.5607 15.8184C16.0924 15.3501 15.5049 15.019 14.8618 14.8608Z" fill="#0246F2"/>
<path id="Vector_15" d="M13.1388 13.1388C12.9807 12.4957 12.6495 11.9082 12.1813 11.44C11.713 10.9717 11.1255 10.6406 10.4824 10.4824C10.6406 11.1255 10.9717 11.713 11.44 12.1812C11.9082 12.6495 12.4958 12.9806 13.1388 13.1388Z" fill="#0046F8"/>
<path id="Vector_16" d="M13.1388 14.8608C12.4958 15.019 11.9082 15.3501 11.44 15.8184C10.9717 16.2866 10.6406 16.8741 10.4824 17.5172C11.1255 17.3591 11.713 17.0279 12.1813 16.5597C12.6495 16.0914 12.9807 15.5039 13.1388 14.8608Z" fill="#0729F1"/>
</g>
<path id="&#229;&#164;&#154;&#232;&#190;&#185;&#229;&#189;&#162;&#229;&#164;&#135;&#228;&#187;&#189; (Stroke)" fill-rule="evenodd" clip-rule="evenodd" d="M23.5242 6.88438L15.3998 2.19378C14.5335 1.69361 13.4662 1.69361 12.5998 2.19378L4.47549 6.88438C3.60917 7.38455 3.07549 8.30891 3.07549 9.30925V18.6905C3.07549 19.6908 3.60916 20.6151 4.47549 21.1153L12.5998 25.8059C13.4662 26.3061 14.5335 26.3061 15.3998 25.8059L23.5242 21.1153C24.3905 20.6151 24.9242 19.6908 24.9242 18.6905V9.30925C24.9242 8.30891 24.3905 7.38455 23.5242 6.88438ZM15.9998 1.15455C14.7622 0.44002 13.2374 0.440019 11.9998 1.15455L3.87549 5.84515C2.63788 6.55968 1.87549 7.88019 1.87549 9.30925V18.6905C1.87549 20.1195 2.63788 21.44 3.87549 22.1546L11.9998 26.8451C13.2374 27.5597 14.7622 27.5597 15.9998 26.8452L24.1242 22.1546C25.3618 21.44 26.1242 20.1195 26.1242 18.6905V9.30925C26.1242 7.88019 25.3618 6.55968 24.1242 5.84515L15.9998 1.15455Z" fill="#7ABDF7"/>
</g>
</svg>
