<svg width="14" height="14" viewBox="0 0 14 14" fill="none" xmlns="http://www.w3.org/2000/svg">
<g id="icon_OKT">
<circle id="&#230;&#164;&#173;&#229;&#156;&#134;&#229;&#189;&#162;" cx="10" cy="10" r="10" fill="#EFF7FE"/>
<g id="okex-2 1">
<path id="Vector" d="M9.24657 9.2465C9.74172 9.36775 10.2588 9.36775 10.754 9.2465C10.8923 8.68383 11.1821 8.16976 11.5918 7.76004C12.0016 7.35031 12.5157 7.06056 13.0783 6.92219C13.1924 6.45576 13.1989 5.9695 13.0975 5.50017C12.9961 5.03083 12.7893 4.59068 12.4928 4.21297C12.1963 3.83526 11.8178 3.52986 11.386 3.31986C10.9542 3.10986 10.4803 3.00073 10.0001 3.00073C9.51991 3.00073 9.046 3.10986 8.61417 3.31986C8.18235 3.52986 7.80389 3.83526 7.5074 4.21297C7.2109 4.59068 7.00413 5.03083 6.90269 5.50017C6.80125 5.9695 6.8078 6.45576 6.92185 6.92219C7.48466 7.0604 7.99886 7.35009 8.40868 7.75983C8.8185 8.16958 9.10827 8.68373 9.24657 9.2465Z" fill="#7ABDF7"/>
<path id="Vector_2" d="M10.7541 10.7532C10.2589 10.6319 9.7418 10.6319 9.24664 10.7532C9.10827 11.3158 8.81852 11.8299 8.40878 12.2396C7.99905 12.6494 7.48497 12.9391 6.92228 13.0775C6.80823 13.5439 6.80168 14.0302 6.90312 14.4995C7.00456 14.9688 7.21133 15.409 7.50782 15.7867C7.80432 16.1644 8.18277 16.4698 8.6146 16.6798C9.04643 16.8898 9.52034 16.9989 10.0005 16.9989C10.4807 16.9989 10.9546 16.8898 11.3864 16.6798C11.8183 16.4698 12.1967 16.1644 12.4932 15.7867C12.7897 15.409 12.9965 14.9688 13.0979 14.4995C13.1994 14.0302 13.1928 13.5439 13.0788 13.0775C12.516 12.9393 12.0018 12.6496 11.5919 12.2398C11.1821 11.8301 10.8923 11.3159 10.7541 10.7532Z" fill="#0D74F5"/>
<path id="Vector_3" d="M13.8321 6.83102C13.5783 6.83099 13.3253 6.86149 13.0788 6.92187C12.9405 7.48452 12.6509 7.99858 12.2412 8.40826C11.8315 8.81794 11.3174 9.10761 10.7548 9.24582C10.6335 9.74097 10.6335 10.2581 10.7548 10.7532C11.3174 10.8915 11.8315 11.1813 12.2412 11.591C12.6509 12.0007 12.9405 12.5148 13.0788 13.0775C13.514 13.1838 13.9669 13.1966 14.4074 13.1151C14.848 13.0335 15.2663 12.8595 15.6346 12.6044C16.003 12.3494 16.3131 12.0191 16.5445 11.6354C16.7758 11.2517 16.9232 10.8234 16.9768 10.3785C17.0305 9.93372 16.9892 9.48259 16.8556 9.0549C16.7221 8.62721 16.4994 8.2327 16.2023 7.8974C15.9051 7.56209 15.5402 7.29361 15.1316 7.10967C14.7231 6.92574 14.2802 6.83053 13.8321 6.83032V6.83102Z" fill="#4494F7"/>
<path id="Vector_4" d="M9.24666 10.7533C9.36791 10.2582 9.36791 9.7411 9.24666 9.24596C8.68396 9.10773 8.16985 8.81806 7.76011 8.40839C7.35036 7.99871 7.06061 7.48466 6.92229 6.922C6.45584 6.80796 5.96958 6.80141 5.50023 6.90284C5.03088 7.00428 4.59072 7.21105 4.213 7.50753C3.83528 7.80402 3.52988 8.18246 3.31987 8.61428C3.10986 9.0461 3.00073 9.52 3.00073 10.0002C3.00073 10.4803 3.10986 10.9542 3.31987 11.3861C3.52988 11.8179 3.83528 12.1963 4.213 12.4928C4.59072 12.7893 5.03088 12.9961 5.50023 13.0975C5.96958 13.1989 6.45584 13.1924 6.92229 13.0783C7.06048 12.5155 7.35016 12.0013 7.75992 11.5914C8.16967 11.1815 8.68385 10.8917 9.24666 10.7533Z" fill="#005CF4"/>
<path id="Vector_5" d="M10.7541 9.24658C11.3168 9.10821 11.8309 8.81846 12.2406 8.40874C12.6503 7.99901 12.9401 7.48495 13.0785 6.92227C12.5158 7.06064 12.0017 7.35039 11.592 7.76011C11.1822 8.16984 10.8925 8.6839 10.7541 9.24658Z" fill="#186EF9"/>
<path id="Vector_6" d="M10.7541 10.7531C10.8924 11.3158 11.1821 11.8299 11.5918 12.2397C12.0016 12.6494 12.5157 12.9391 13.0785 13.0774C12.9401 12.5147 12.6503 12.0007 12.2406 11.5909C11.8309 11.1812 11.3168 10.8914 10.7541 10.7531Z" fill="#0246F2"/>
<path id="Vector_7" d="M9.24648 9.24658C9.10811 8.6839 8.81836 8.16984 8.40862 7.76011C7.99889 7.35039 7.48481 7.06064 6.92212 6.92227C7.06049 7.48495 7.35025 7.99901 7.75998 8.40874C8.16972 8.81846 8.68379 9.10821 9.24648 9.24658Z" fill="#0046F8"/>
<path id="Vector_8" d="M9.24648 10.7531C8.68379 10.8914 8.16972 11.1812 7.75998 11.5909C7.35025 12.0007 7.06049 12.5147 6.92212 13.0774C7.48481 12.939 7.99889 12.6493 8.40862 12.2396C8.81836 11.8298 9.10811 11.3158 9.24648 10.7531Z" fill="#0729F1"/>
<path id="Vector_9" d="M9.24657 9.2465C9.74172 9.36775 10.2588 9.36775 10.754 9.2465C10.8923 8.68383 11.1821 8.16976 11.5918 7.76004C12.0016 7.35031 12.5157 7.06056 13.0783 6.92219C13.1924 6.45576 13.1989 5.9695 13.0975 5.50017C12.9961 5.03083 12.7893 4.59068 12.4928 4.21297C12.1963 3.83526 11.8178 3.52986 11.386 3.31986C10.9542 3.10986 10.4803 3.00073 10.0001 3.00073C9.51991 3.00073 9.046 3.10986 8.61417 3.31986C8.18235 3.52986 7.80389 3.83526 7.5074 4.21297C7.2109 4.59068 7.00413 5.03083 6.90269 5.50017C6.80125 5.9695 6.8078 6.45576 6.92185 6.92219C7.48466 7.0604 7.99886 7.35009 8.40868 7.75983C8.8185 8.16958 9.10827 8.68373 9.24657 9.2465Z" fill="#7ABDF7"/>
<path id="Vector_10" d="M10.7541 10.7532C10.2589 10.6319 9.7418 10.6319 9.24664 10.7532C9.10827 11.3158 8.81852 11.8299 8.40878 12.2396C7.99905 12.6494 7.48497 12.9391 6.92228 13.0775C6.80823 13.5439 6.80168 14.0302 6.90312 14.4995C7.00456 14.9688 7.21133 15.409 7.50782 15.7867C7.80432 16.1644 8.18277 16.4698 8.6146 16.6798C9.04643 16.8898 9.52034 16.9989 10.0005 16.9989C10.4807 16.9989 10.9546 16.8898 11.3864 16.6798C11.8183 16.4698 12.1967 16.1644 12.4932 15.7867C12.7897 15.409 12.9965 14.9688 13.0979 14.4995C13.1994 14.0302 13.1928 13.5439 13.0788 13.0775C12.516 12.9393 12.0018 12.6496 11.5919 12.2398C11.1821 11.8301 10.8923 11.3159 10.7541 10.7532Z" fill="#0D74F5"/>
<path id="Vector_11" d="M13.8321 6.83102C13.5783 6.83099 13.3253 6.86149 13.0788 6.92187C12.9405 7.48452 12.6509 7.99858 12.2412 8.40826C11.8315 8.81794 11.3174 9.10761 10.7548 9.24582C10.6335 9.74097 10.6335 10.2581 10.7548 10.7532C11.3174 10.8915 11.8315 11.1813 12.2412 11.591C12.6509 12.0007 12.9405 12.5148 13.0788 13.0775C13.514 13.1838 13.9669 13.1966 14.4074 13.1151C14.848 13.0335 15.2663 12.8595 15.6346 12.6044C16.003 12.3494 16.3131 12.0191 16.5445 11.6354C16.7758 11.2517 16.9232 10.8234 16.9768 10.3785C17.0305 9.93372 16.9892 9.48259 16.8556 9.0549C16.7221 8.62721 16.4994 8.2327 16.2023 7.8974C15.9051 7.56209 15.5402 7.29361 15.1316 7.10967C14.7231 6.92574 14.2802 6.83053 13.8321 6.83032V6.83102Z" fill="#4494F7"/>
<path id="Vector_12" d="M9.24666 10.7533C9.36791 10.2582 9.36791 9.7411 9.24666 9.24596C8.68396 9.10773 8.16985 8.81806 7.76011 8.40839C7.35036 7.99871 7.06061 7.48466 6.92229 6.922C6.45584 6.80796 5.96958 6.80141 5.50023 6.90284C5.03088 7.00428 4.59072 7.21105 4.213 7.50753C3.83528 7.80402 3.52988 8.18246 3.31987 8.61428C3.10986 9.0461 3.00073 9.52 3.00073 10.0002C3.00073 10.4803 3.10986 10.9542 3.31987 11.3861C3.52988 11.8179 3.83528 12.1963 4.213 12.4928C4.59072 12.7893 5.03088 12.9961 5.50023 13.0975C5.96958 13.1989 6.45584 13.1924 6.92229 13.0783C7.06048 12.5155 7.35016 12.0013 7.75992 11.5914C8.16967 11.1815 8.68385 10.8917 9.24666 10.7533Z" fill="#005CF4"/>
<path id="Vector_13" d="M10.7541 9.24658C11.3168 9.10821 11.8309 8.81846 12.2406 8.40874C12.6503 7.99901 12.9401 7.48495 13.0785 6.92227C12.5158 7.06064 12.0017 7.35039 11.592 7.76011C11.1822 8.16984 10.8925 8.6839 10.7541 9.24658Z" fill="#186EF9"/>
<path id="Vector_14" d="M10.7541 10.7531C10.8924 11.3158 11.1821 11.8299 11.5918 12.2397C12.0016 12.6494 12.5157 12.9391 13.0785 13.0774C12.9401 12.5147 12.6503 12.0007 12.2406 11.5909C11.8309 11.1812 11.3168 10.8914 10.7541 10.7531Z" fill="#0246F2"/>
<path id="Vector_15" d="M9.24648 9.24658C9.10811 8.6839 8.81836 8.16984 8.40862 7.76011C7.99889 7.35039 7.48481 7.06064 6.92212 6.92227C7.06049 7.48495 7.35025 7.99901 7.75998 8.40874C8.16972 8.81846 8.68379 9.10821 9.24648 9.24658Z" fill="#0046F8"/>
<path id="Vector_16" d="M9.24648 10.7531C8.68379 10.8914 8.16972 11.1812 7.75998 11.5909C7.35025 12.0007 7.06049 12.5147 6.92212 13.0774C7.48481 12.939 7.99889 12.6493 8.40862 12.2396C8.81836 11.8298 9.10811 11.3158 9.24648 10.7531Z" fill="#0729F1"/>
</g>
</g>
</svg>
