<?xml version="1.0" encoding="UTF-8"?>
<svg width="28px" height="28px" viewBox="0 0 28 28" version="1.1" xmlns="http://www.w3.org/2000/svg" xmlns:xlink="http://www.w3.org/1999/xlink">
    <g id="H5暗黑" stroke="none" stroke-width="1" fill="none" fill-rule="evenodd">
        <g id="1-1-1-4-Shuttle-In-成为Token-Caption老Caption-未解冻" transform="translate(-535.000000, -293.000000)">
            <g id="编组" transform="translate(535.000000, 293.000000)">
                <circle id="椭圆形备份" fill-opacity="0.2" fill="#FFFFFF" cx="14" cy="14" r="14"></circle>
                <g id="用户备份" transform="translate(6.000000, 6.000000)" fill="#000000" fill-rule="nonzero">
                    <rect id="矩形" opacity="0" x="0" y="0" width="16" height="16"></rect>
                    <path d="M11.0593333,4.75666667 C11.0593333,2.972 9.60066666,1.52533333 7.80133333,1.52533333 C6.002,1.52533333 4.54333333,2.972 4.54333333,4.75666667 C4.54333333,6.54133334 6.002,7.988 7.80133333,7.988 C9.60133333,7.988 11.0593333,6.54133333 11.0593333,4.75666667 M15.6226667,15.0066667 C15.644,15.076 15.6586667,15.1486667 15.6586667,15.2253333 C15.6586667,15.6453333 15.316,15.9866713 14.8926667,15.9866713 C14.6902179,15.9871978 14.4958499,15.9072843 14.3523219,15.7645065 C14.2087939,15.6217287 14.1278631,15.4277821 14.1273333,15.2253333 L14.1273333,15.2226667 L14.1073333,15.2226667 C13.908,12.0366667 11.252,9.512 7.99533333,9.512 C4.738,9.512 2.082,12.0366667 1.882,15.2226667 L1.86466667,15.2226667 L1.86466667,15.2253333 C1.86466667,15.6453333 1.522,15.9866713 1.09933333,15.9866713 C0.896769206,15.987375 0.702229894,15.9075399 0.55855758,15.7647428 C0.414885265,15.6219458 0.333862824,15.427898 0.333333328,15.2253333 C0.333333328,15.1533333 0.346666656,15.0853333 0.365333328,15.0186667 C0.588,12.1273333 2.426,9.68666667 4.99266667,8.59866667 C3.8,7.734 3.02,6.33733333 3.02,4.75666667 C3.02,2.13 5.16333333,0 7.80666667,0 C10.4506667,0 12.5933333,2.13 12.5933333,4.75666667 C12.5925432,6.22501367 11.9103464,7.60984855 10.7466667,8.50533333 C13.4373333,9.53666666 15.3886667,12.0293333 15.6226667,15.0066667" id="形状"></path>
                </g>
            </g>
        </g>
    </g>
</svg>