<?xml version="1.0" encoding="UTF-8"?>
<svg width="30px" height="30px" viewBox="0 0 30 30" version="1.1" xmlns="http://www.w3.org/2000/svg" xmlns:xlink="http://www.w3.org/1999/xlink">
    <g id="H5暗黑" stroke="none" stroke-width="1" fill="none" fill-rule="evenodd">
        <g id="0-H5首页" transform="translate(-651.000000, -767.000000)" fill-rule="nonzero">
            <g id="复制" transform="translate(646.000000, 762.000000)">
                <rect id="矩形" fill="#000000" opacity="0" x="0" y="0" width="40" height="40"></rect>
                <path d="M29.73,27.942 C28.8949455,27.942 28.218,27.2650545 28.218,26.43 C28.218,25.5949455 28.8949455,24.918 29.73,24.918 C30.5374403,24.918 31.192,24.2634403 31.192,23.456 L31.192,10.352 C31.192,9.5445597 30.5374403,8.89 29.73,8.89 L16.626,8.89 C15.8185597,8.89 15.164,9.5445597 15.164,10.352 C15.164,11.1870545 14.4870545,11.864 13.652,11.864 C12.8169455,11.864 12.14,11.1870545 12.14,10.352 C12.1454994,7.87673211 14.1507321,5.87149939 16.626,5.866 L29.73,5.866 C32.2052679,5.87149939 34.2105006,7.87673211 34.216,10.352 L34.216,23.456 C34.2105006,25.9312679 32.2052679,27.9365006 29.73,27.942 L29.73,27.942 Z M23.026,34.4960038 L10.476,34.4960038 C9.218916,34.4975949 8.01286024,33.9989264 7.1239669,33.1100331 C6.23507356,32.2211398 5.73640505,31.015084 5.73799322,29.758 L5.73799322,17.158 C5.73587315,15.9005697 6.23430683,14.6939994 7.12325795,13.804673 C8.01220908,12.9153467 9.21856892,12.4164038 10.476,12.4179962 L23.026,12.4179962 C24.283084,12.4164051 25.4891398,12.9150736 26.3780331,13.8039669 C27.2669264,14.6928602 27.7655949,15.898916 27.764,17.156 L27.764,29.756 C27.814,32.378 25.648,34.4960038 23.026,34.4960038 Z M10.476,15.4419418 C10.020274,15.4382313 9.58211829,15.6176024 9.25986034,15.9398603 C8.9376024,16.2621183 8.75823125,16.700274 8.76194179,17.156 L8.76194179,29.756 C8.75823125,30.211726 8.9376024,30.6498817 9.25986034,30.9721397 C9.58211829,31.2943976 10.020274,31.4737687 10.476,31.4700582 L23.026,31.4700582 C23.481726,31.4737687 23.9198817,31.2943976 24.2421397,30.9721397 C24.5643976,30.6498817 24.7437687,30.211726 24.7400582,29.756 L24.7400582,17.156 C24.7437687,16.700274 24.5643976,16.2621183 24.2421397,15.9398603 C23.9198817,15.6176024 23.481726,15.4382313 23.026,15.4419418 L10.476,15.4419418 Z" id="形状" fill="#BBBBBB"></path>
            </g>
        </g>
    </g>
</svg>