<?xml version="1.0" encoding="UTF-8"?>
<svg width="20px" height="20px" viewBox="0 0 20 20" version="1.1" xmlns="http://www.w3.org/2000/svg" xmlns:xlink="http://www.w3.org/1999/xlink">
    <g id="H5暗黑" stroke="none" stroke-width="1" fill="none" fill-rule="evenodd">
        <g id="0-H5首页-公告" transform="translate(-518.000000, -934.000000)" fill-rule="nonzero">
            <g id="二维码" transform="translate(514.000000, 930.000000)">
                <rect id="矩形" fill="#000000" opacity="0" x="0" y="0" width="28" height="28"></rect>
                <path d="M5.8694125,13.3760083 C5.3977,13.3760083 4.95439583,13.1928125 4.62023333,12.860225 C4.2854,12.5265292 4.100425,12.0823208 4.09955,11.6097042 L4.08858,6.0837 C4.08767917,5.61096667 4.270875,5.16623333 4.60457083,4.8314 C4.9380625,4.49645 5.38227083,4.31159167 5.85485833,4.31071667 L11.380775,4.29975 L11.3841292,4.29975 C12.3586458,4.29975 13.1522125,5.09130417 13.1539917,6.06582083 L13.1649617,11.591825 C13.1658625,12.0646458 12.9826667,12.5092917 12.649175,12.8443583 C12.3154792,13.1791917 11.871475,13.3641667 11.3986542,13.3650417 L5.8727375,13.3760083 L5.8694125,13.3760083 Z M5.92106667,6.14285 L5.93156667,11.5434958 L11.3324458,11.5329958 L11.3219458,6.13211667 L5.92106667,6.14285 L5.92106667,6.14285 Z M5.8891,23.4034208 C5.41762083,23.4034208 4.97431667,23.220225 4.64015417,22.8876375 C4.30532083,22.5539417 4.12034583,22.1099375 4.11947083,21.63735 L4.10850084,16.1112292 C4.1076,15.6386125 4.29079583,15.1939667 4.6242875,14.8589292 C4.95798333,14.5240958 5.4019875,14.3391208 5.874575,14.3382458 L11.4006958,14.3272792 L11.40405,14.3272792 C11.8755292,14.3272792 12.3188333,14.510475 12.6529958,14.8430625 C12.9878292,15.1767875 13.1728042,15.6207625 13.1736792,16.09335 L13.1846492,21.6194708 C13.18555,22.0920875 13.0023542,22.5367333 12.6688625,22.8717708 C12.3351667,23.2066042 11.8911625,23.3915792 11.418575,23.3924542 L5.89245417,23.4034208 L5.8891,23.4034208 L5.8891,23.4034208 Z M5.9409875,16.1702625 L5.9514875,21.5709083 L11.3521333,21.5604083 L11.3416333,16.1597625 L5.9409875,16.1702625 Z M16.2256208,13.3554458 C15.7541417,13.3554458 15.3108375,13.17225 14.976675,12.8396625 C14.6418417,12.5059667 14.4568667,12.0619625 14.4559917,11.589375 L14.445022,6.06325417 C14.4432458,5.08739583 15.2354708,4.2921375 16.2110958,4.29024167 L21.7372167,4.279275 L21.7405708,4.279275 C22.21205,4.279275 22.6553542,4.46235417 22.9895167,4.795175 C23.32435,5.12878333 23.509325,5.57275833 23.5102,6.04534583 L23.52117,11.5714667 C23.5220708,12.0440833 23.338875,12.4887292 23.0053833,12.8237667 C22.6716583,13.1586 22.2276833,13.343575 21.7550958,13.34445 L16.228975,13.3554458 L16.2256208,13.3554458 L16.2256208,13.3554458 Z M16.2775083,6.12240417 L16.2880083,11.5229333 L21.6886542,11.5124333 L21.6781542,6.11167083 L16.2775083,6.12240417 Z" id="形状" fill="#FFFFFF"></path>
                <path d="M16.0511458,23.3832958 C15.5458917,23.3832958 15.1361292,22.9744375 15.1350208,22.46895 L15.1238478,16.879975 C15.1227417,16.37405 15.5322708,15.9631792 16.0381958,15.9620417 L16.039975,15.9620417 C16.5452292,15.9620417 16.9549917,16.3709 16.9561,16.8763875 L16.9672731,22.4653625 C16.9683792,22.9712875 16.55885,23.3821583 16.052925,23.3832958 L16.0511458,23.3832958 L16.0511458,23.3832958 Z M19.3388417,23.3768208 C18.8335875,23.3768208 18.4235917,22.9679625 18.4227167,22.462475 L18.4139943,18.0240375 C18.4130917,17.5181125 18.8224167,17.1070083 19.3283417,17.1061042 L19.3301208,17.1061042 C19.835375,17.1061042 20.2453708,17.5149625 20.2462458,18.02045 L20.2549682,22.4588875 C20.2558708,22.9648125 19.8465458,23.3759167 19.3406208,23.3768208 L19.3388417,23.3768208 L19.3388417,23.3768208 Z M22.6265083,23.3703167 C22.1212542,23.3703167 21.7112583,22.9614583 21.7103833,22.4559708 L21.696061,15.2230458 C21.6951583,14.7171208 22.1044833,14.3060167 22.6104083,14.3051125 L22.6121875,14.3051125 C23.1174417,14.3051125 23.5274375,14.7139708 23.5283125,15.2194583 L23.5426348,22.4523833 C23.5435375,22.9583083 23.1342125,23.3694125 22.6282875,23.3703167 L22.6265083,23.3703167 L22.6265083,23.3703167 Z" id="形状" fill="#FFFFFF"></path>
            </g>
        </g>
    </g>
</svg>