<?xml version="1.0" encoding="UTF-8"?>
<svg width="40px" height="40px" viewBox="0 0 40 40" version="1.1" xmlns="http://www.w3.org/2000/svg" xmlns:xlink="http://www.w3.org/1999/xlink">
    <title>对勾1@2x</title>
    <g id="H5暗黑" stroke="none" stroke-width="1" fill="none" fill-rule="evenodd">
        <g id="0-H5-复制成功" transform="translate(-297.000000, -629.000000)" fill-rule="nonzero">
            <g id="对勾1" transform="translate(297.000000, 629.000000)">
                <rect id="矩形" fill="#000000" opacity="0" x="0" y="0" width="40" height="40"></rect>
                <path d="M20,0 C8.92307691,0 0,8.92307691 0,20 C0,31.0769231 8.92307691,40 20,40 C31.0769231,40 40,31.0769231 40,20 C40,8.92307691 31.0769231,0 20,0 Z M30,16.1538462 L19.3846154,26.7692308 C19.0769231,27.0769231 18.6153846,27.2307692 18.1538462,27.2307692 C17.6923077,27.2307692 17.2307693,27.076923 16.9230769,26.7692308 L10.3076923,20.1538462 C9.6923077,19.5384616 9.6923077,18.3076923 10.3076923,17.6923077 C10.9230769,17.0769231 12.1538461,17.0769231 12.7692308,17.6923077 L18.1538462,23.0769231 L27.5384615,13.6923077 C28.1538461,13.0769231 29.3846154,13.0769231 30,13.6923077 C30.7692308,14.3076923 30.7692308,15.5384615 30,16.1538462 L30,16.1538462 Z" id="形状" fill="#44D7B6"></path>
            </g>
        </g>
    </g>
</svg>