<?xml version="1.0" encoding="UTF-8"?>
<svg width="14px" height="14px" viewBox="0 0 14 14" version="1.1" xmlns="http://www.w3.org/2000/svg" xmlns:xlink="http://www.w3.org/1999/xlink">
    <g id="Pc暗黑" stroke="none" stroke-width="1" fill="none" fill-rule="evenodd">
        <g id="4-Markets" transform="translate(-754.000000, -278.000000)">
            <g id="Conflux-Tag-pc" transform="translate(754.000000, 278.000000)">
                <path d="M6.2,0.923760431 C6.69504172,0.637947959 7.30495828,0.637947959 7.8,0.923760431 L7.8,0.923760431 L11.8621778,3.26905989 C12.1096987,3.41196613 12.3096987,3.61547005 12.4478185,3.85470054 C12.5859383,4.09393102 12.6621778,4.36888807 12.6621778,4.65470054 L12.6621778,4.65470054 L12.6621778,9.34529946 C12.6621778,9.91692441 12.3572195,10.4451276 11.8621778,10.7309401 L11.8621778,10.7309401 L7.8,13.0762396 C7.30495828,13.362052 6.69504172,13.362052 6.2,13.0762396 L6.2,13.0762396 L2.13782217,10.7309401 C1.64278045,10.4451276 1.33782217,9.91692441 1.33782217,9.34529946 L1.33782217,9.34529946 L1.33782217,4.65470054 C1.33782217,4.08307559 1.64278045,3.55487236 2.13782217,3.26905989 L2.13782217,3.26905989 Z" id="多边形" stroke="#FFFFFF" stroke-width="0.8" fill="#474747"></path>
                <g id="编组-3备份" transform="translate(2.000000, 2.000000)">
                    <path d="M8.1715519,3.57236133 L5.30606252,0.669534898 C5.08411097,0.444691339 4.72191197,0.442346904 4.49706841,0.664298455 C4.49556996,0.665777631 4.49407969,0.667265068 4.49259767,0.668760699 L0.272116088,4.9279883 L0.272116088,4.9279883 L9.79583348,4.6568037 L3.40924235,4.22589847 L4.52454592,3.00398255 C4.73340015,2.77516387 5.08645244,2.75418429 5.32093555,2.95665835 L6.03397478,3.57236133 L6.03397478,3.57236133 L8.1715519,3.57236133 Z" id="路径-5" fill="#44D7B6"></path>
                    <path d="M8.1715519,8.78976079 L5.30606252,5.88693436 C5.08411097,5.6620908 4.72191197,5.65974636 4.49706841,5.88169791 C4.49556996,5.88317709 4.49407969,5.88466452 4.49259767,5.88616016 L0.272116088,10.1453878 L0.272116088,10.1453878 L9.79583348,9.87420315 L3.40924235,9.44329792 L4.52454592,8.22138201 C4.73340015,7.99256332 5.08645244,7.97158375 5.32093555,8.17405781 L6.03397478,8.78976079 L6.03397478,8.78976079 L8.1715519,8.78976079 Z" id="路径-5备份" fill="#FFFFFF" transform="translate(5.033975, 7.810343) rotate(-180.000000) translate(-5.033975, -7.810343) "></path>
                </g>
            </g>
        </g>
    </g>
</svg>