<?xml version="1.0" encoding="UTF-8"?>
<svg width="26px" height="26px" viewBox="0 0 26 26" version="1.1" xmlns="http://www.w3.org/2000/svg" xmlns:xlink="http://www.w3.org/1999/xlink">
    <g id="H5暗黑" stroke="none" stroke-width="1" fill="none" fill-rule="evenodd">
        <g id="1-1-2Shuttle-In-成为Token-Caption-空状态" transform="translate(-670.000000, -241.000000)" fill-rule="nonzero">
            <g id="关闭" transform="translate(670.000000, 241.000000)">
                <rect id="矩形" fill="#000000" opacity="0" x="2" y="2" width="24" height="24"></rect>
                <path d="M12,0 C5.372583,0 0,5.372583 0,12 C0,18.627417 5.372583,24 12,24 C18.627417,24 24,18.627417 24,12 C24,5.372583 18.627417,0 12,0 Z M17.31,15.18 C17.8981833,15.7681833 17.8981833,16.7218167 17.31,17.31 C16.7218167,17.8981833 15.7681833,17.8981833 15.18,17.31 L12,14.115 L8.82,17.31 C8.23181674,17.8981832 7.27818327,17.8981832 6.69000002,17.31 C6.10181676,16.7218167 6.10181676,15.7681833 6.69,15.18 L9.885,12 L6.69,8.82 C6.10181674,8.23181674 6.10181674,7.27818326 6.69,6.69 C7.27818326,6.10181674 8.23181674,6.10181674 8.82,6.69 L12,9.885 L15.18,6.69 C15.7681833,6.10181674 16.7218167,6.10181674 17.31,6.69 C17.8981833,7.27818326 17.8981833,8.23181674 17.31,8.82 L14.115,12 L17.31,15.18 Z" id="形状" fill="#FFFFFF" opacity="0.4"></path>
            </g>
        </g>
    </g>
</svg>