<?xml version="1.0" encoding="UTF-8"?>
<svg width="32px" height="32px" viewBox="0 0 32 32" version="1.1" xmlns="http://www.w3.org/2000/svg" xmlns:xlink="http://www.w3.org/1999/xlink">
    <g id="H5暗黑" stroke="none" stroke-width="1" fill="none" fill-rule="evenodd">
        <g id="0-H5首页" transform="translate(-255.000000, -662.000000)" fill-rule="nonzero">
            <g id="问号" transform="translate(253.000000, 660.000000)">
                <rect id="矩形" fill="#000000" opacity="0" x="0" y="0" width="36" height="36"></rect>
                <path d="M18,2.70703125 C9.55546875,2.70703125 2.70703125,9.55546875 2.70703125,18 C2.70703125,26.4445313 9.55546875,33.2929688 18,33.2929688 C26.4445313,33.2929688 33.2929688,26.4445313 33.2929688,18 C33.2929688,9.55546875 26.4445313,2.70703125 18,2.70703125 L18,2.70703125 Z M17.9015625,28.7015625 C16.6570313,28.7015625 15.6445312,27.7101562 15.6445312,26.4902344 C15.6445312,25.2703125 16.6535156,24.2789062 17.9015625,24.2789062 C19.1460938,24.2789062 20.1585938,25.2703125 20.1585938,26.4902344 C20.1585938,27.7101562 19.1496094,28.7015625 17.9015625,28.7015625 L17.9015625,28.7015625 Z M23.9625,16.1894531 C23.5195312,16.8855469 22.5808594,17.83125 21.1394531,19.0300781 C20.3941406,19.6488281 19.9300781,20.1480469 19.7507813,20.5277344 C19.5714844,20.9039063 19.4871094,21.5789063 19.5046875,22.5527344 L16.2914063,22.5527344 C16.284375,22.0921875 16.2773438,21.8109375 16.2773438,21.7089844 C16.2773438,20.6683594 16.4496094,19.8140625 16.7941406,19.1425781 C17.1386719,18.4710938 17.8277344,17.7152344 18.8578125,16.8785156 C19.8878906,16.0382813 20.5066406,15.4898438 20.7070313,15.2296875 C21.0164063,14.8183594 21.1746094,14.3648438 21.1746094,13.8726563 C21.1746094,13.1871094 20.896875,12.6 20.3484375,12.1078125 C19.8,11.6191406 19.0546875,11.3730469 18.1230469,11.3730469 C17.2230469,11.3730469 16.4707031,11.6296875 15.8660156,12.1394531 C15.2613281,12.6492188 14.7410156,13.7742188 14.6179688,14.4703125 C14.5019531,15.1277344 11.334375,15.4054688 11.3730469,14.0730469 C11.4117188,12.740625 12.1042969,11.2957031 13.2925781,10.2480469 C14.4808594,9.20039063 16.0417969,8.6765625 17.971875,8.6765625 C20.0039063,8.6765625 21.6175781,9.20742188 22.8199219,10.2691406 C24.0222656,11.3308594 24.6199631,12.5648438 24.6199631,13.9746094 C24.6234375,14.7550781 24.4019531,15.4933594 23.9625,16.1894531 L23.9625,16.1894531 Z" id="形状" fill="#FFFFFF" opacity="0.4"></path>
            </g>
        </g>
    </g>
</svg>