<?xml version="1.0" encoding="UTF-8"?>
<svg width="192px" height="208px" viewBox="0 0 192 208" version="1.1" xmlns="http://www.w3.org/2000/svg" xmlns:xlink="http://www.w3.org/1999/xlink">
    <defs>
        <rect id="path-1" x="0" y="0" width="340" height="240"></rect>
        <linearGradient x1="50%" y1="78.2763416%" x2="50%" y2="-5.41762107%" id="linearGradient-3">
            <stop stop-color="#E6E6ED" offset="0%"></stop>
            <stop stop-color="#FDFAFD" offset="100%"></stop>
        </linearGradient>
        <circle id="path-4" cx="95.6210938" cy="95.5" r="95.5"></circle>
        <linearGradient x1="13.1198102%" y1="40.7036926%" x2="70.5324082%" y2="65.3922027%" id="linearGradient-6">
            <stop stop-color="#FFFFFF" offset="0%"></stop>
            <stop stop-color="#F8F8F8" offset="23.1594084%"></stop>
            <stop stop-color="#C0BBC5" offset="100%"></stop>
        </linearGradient>
        <path d="M39.1209908,14.30155 C36.7020312,12.219209 33.1385489,11.0043836 28.4305441,10.6570739 C23.7225392,10.3097642 15.8470489,10.6543277 4.80407319,11.6907644 L4.80407319,11.6907644 C2.41231353,13.5651728 1.28222257,15.2721697 1.41380032,16.8117551 C1.61116695,19.1211333 1.58767016,19.8017599 2.70438423,21.3171606 C3.44886027,22.3274277 4.815845,23.26443 6.80533841,24.1281674 L6.80533841,24.1281674 L21.1591168,26.7897751 L21.1591168,26.7897751 L39.1209908,14.30155 Z" id="path-7"></path>
        <filter x="-5.3%" y="-12.3%" width="110.6%" height="124.6%" filterUnits="objectBoundingBox" id="filter-9">
            <feGaussianBlur stdDeviation="1.5" in="SourceAlpha" result="shadowBlurInner1"></feGaussianBlur>
            <feOffset dx="0" dy="1" in="shadowBlurInner1" result="shadowOffsetInner1"></feOffset>
            <feComposite in="shadowOffsetInner1" in2="SourceAlpha" operator="arithmetic" k2="-1" k3="1" result="shadowInnerInner1"></feComposite>
            <feColorMatrix values="0 0 0 0 1   0 0 0 0 1   0 0 0 0 1  0 0 0 1 0" type="matrix" in="shadowInnerInner1"></feColorMatrix>
        </filter>
        <linearGradient x1="22.2470304%" y1="6.56750662%" x2="53.487542%" y2="100%" id="linearGradient-10">
            <stop stop-color="#ECE4F6" offset="0%"></stop>
            <stop stop-color="#F8F8F8" offset="15.6306535%"></stop>
            <stop stop-color="#F8F8F8" offset="34.906343%"></stop>
            <stop stop-color="#C0BBC5" offset="100%"></stop>
        </linearGradient>
        <path d="M68.9061731,26.8998321 L66.9740269,25.5307703 C62.8299222,22.59438 59.5114859,18.6406416 57.338156,14.0501484 L54.6731086,8.42105263 L54.6731086,8.42105263 L36.1438166,14.4820432 C26.8978193,17.5064384 19.2812102,24.164106 15.0472862,32.9224918 L13.3875357,36.3558871 C10.1188629,43.1175335 8.42105263,50.5306334 8.42105263,58.0408987 L8.42105263,63.7182233 C8.42105263,67.0370443 11.1114887,69.7274804 14.4303097,69.7274804 C14.636377,69.7274804 14.8423079,69.7168808 15.0472862,69.6957237 C18.9138326,69.2966324 21.9781184,66.2542105 22.4048859,62.3906209 L22.973578,57.2421664 C23.357361,53.7677219 24.4876292,50.4172871 26.2869564,47.420376 L28.5109074,43.7162227 C28.6099879,43.5511969 28.8240883,43.4977377 28.989114,43.5968182 C29.0793079,43.65097 29.1402157,43.7429646 29.1548494,43.8471434 C29.2438816,44.4809714 29.129675,45.1267077 28.8286434,45.6915481 L27.1298174,48.8791385 C25.7060271,51.550666 24.8894657,54.5035311 24.7384055,57.527009 L24.0691831,70.9215276 C23.7995974,76.3172981 27.9551913,80.9099768 33.3509619,81.1795625 C33.5135445,81.1876855 33.6763045,81.1917489 33.8390899,81.1917489 C39.6447353,81.1917489 44.4747098,76.728267 44.9318965,70.940651 L45.6656863,61.6514635 C46.1017926,56.1307083 48.9749237,51.0912926 53.5036321,47.9038601 L59.6155063,43.6021509 C59.9324436,43.3790815 60.3702054,43.4551765 60.5932748,43.7721137 C60.6692206,43.8800176 60.7132056,44.0071475 60.720182,44.1389138 L61.5233197,59.3080832 C61.6547745,61.7909206 63.4369255,63.8761704 65.8689693,64.392818 C68.3494707,64.9197596 70.89691,63.8545617 72.2640036,61.7187691 L72.7066201,61.0272752 C74.5009052,58.2240868 75.7589483,55.112027 76.4167482,51.849417 L76.5830592,51.024534 C77.3460644,47.2401185 77.1798801,43.3271111 76.0987551,39.6210153 L74.801266,35.1732237 C73.8258131,31.8293716 71.7482518,28.9136453 68.9061731,26.8998321 Z" id="path-11"></path>
        <linearGradient x1="71.2454969%" y1="17.7394296%" x2="69.4889352%" y2="50%" id="linearGradient-13">
            <stop stop-color="#EDEDED" stop-opacity="0.0461647727" offset="0%"></stop>
            <stop stop-color="#BBB4C3" offset="100%"></stop>
        </linearGradient>
        <linearGradient x1="65.6714583%" y1="-8.84530498%" x2="62.7024037%" y2="62.7469348%" id="linearGradient-14">
            <stop stop-color="#EDEDED" stop-opacity="0.0461647727" offset="0%"></stop>
            <stop stop-color="#BBB4C3" offset="100%"></stop>
        </linearGradient>
        <linearGradient x1="67.6086814%" y1="38.242781%" x2="50%" y2="57.655871%" id="linearGradient-15">
            <stop stop-color="#E6E4E9" offset="0%"></stop>
            <stop stop-color="#C9C5CE" offset="100%"></stop>
        </linearGradient>
        <linearGradient x1="50%" y1="-8.90873117%" x2="45.5726412%" y2="83.635162%" id="linearGradient-16">
            <stop stop-color="#C7C6CA" offset="0%"></stop>
            <stop stop-color="#C5B6DA" offset="15.4525634%"></stop>
            <stop stop-color="#ADA6B4" offset="30.559833%"></stop>
            <stop stop-color="#9A8FA5" offset="89.1532219%"></stop>
            <stop stop-color="#9F8EB0" offset="100%"></stop>
        </linearGradient>
        <path d="M7.70833333,50.892955 L10.5319544,56.7160701 C12.6114351,61.0045549 15.5265299,64.8345018 19.1061759,67.981163 L25.3952198,73.5095001 L25.3952198,73.5095001 L29.3995833,76.3716465 C39.7341105,83.7583211 53.6897755,83.4935551 63.7366877,75.720205 L67.6157321,72.7189675 C81.1712507,62.2309898 84.2206739,43.0035301 74.5754344,28.8359926 C73.3269257,27.0020982 72.0379833,25.2434907 70.7086075,23.56017 C70.2972232,23.0392551 69.880411,22.521954 69.4581709,22.0082666 C57.8851686,7.92878133 37.4857395,4.99699383 22.4160499,15.2473958 L18.0303177,18.2305706 C7.45461985,25.4241597 3.18700401,38.9283954 7.70833333,50.892955 L7.70833333,50.892955 L7.70833333,50.892955 Z" id="path-17"></path>
        <linearGradient x1="33.6134861%" y1="-2.44476579%" x2="59.1751947%" y2="132.786648%" id="linearGradient-19">
            <stop stop-color="#F8F8F8" offset="0%"></stop>
            <stop stop-color="#F8F8F8" offset="18.4890828%"></stop>
            <stop stop-color="#C3BFC8" offset="80.9446275%"></stop>
            <stop stop-color="#C0BBC5" offset="100%"></stop>
        </linearGradient>
        <path d="M25.8483678,11.4596867 C27.3931089,11.6823653 28.9137542,11.593205 30.4103037,11.1922058 C32.655128,10.5907069 41.0855291,12.3102278 49.6777169,21.2346402 C52.5636996,24.2322119 55.1820745,27.6658329 57.5328417,31.5355032 C61.795707,38.552737 61.7446017,47.3722485 57.4007016,54.3396098 L53.4655963,60.6512883 L53.4655963,60.6512883 L52.8582137,61.4054502 C45.9968697,69.9248988 35.2359071,74.3162412 24.3729441,73.0297423 L24.3729441,73.0297423 L24.3729441,73.0297423 L53.6307566,99.2578125 L91.1938048,41.4980811 L54.9170779,-0.701754386 L25.8483678,11.4596867 Z" id="path-20"></path>
        <filter x="-3.0%" y="-2.0%" width="106.0%" height="104.0%" filterUnits="objectBoundingBox" id="filter-21">
            <feGaussianBlur stdDeviation="1.5" in="SourceAlpha" result="shadowBlurInner1"></feGaussianBlur>
            <feOffset dx="0" dy="1" in="shadowBlurInner1" result="shadowOffsetInner1"></feOffset>
            <feComposite in="shadowOffsetInner1" in2="SourceAlpha" operator="arithmetic" k2="-1" k3="1" result="shadowInnerInner1"></feComposite>
            <feColorMatrix values="0 0 0 0 1   0 0 0 0 1   0 0 0 0 1  0 0 0 0.5 0" type="matrix" in="shadowInnerInner1"></feColorMatrix>
        </filter>
        <linearGradient x1="38.4544721%" y1="0%" x2="47.3947986%" y2="69.5843405%" id="linearGradient-22">
            <stop stop-color="#E6E4E9" stop-opacity="0" offset="0%"></stop>
            <stop stop-color="#CFCBD3" stop-opacity="0.797477452" offset="55.5646406%"></stop>
            <stop stop-color="#C9C5CE" offset="100%"></stop>
        </linearGradient>
        <linearGradient x1="50%" y1="0%" x2="50%" y2="100%" id="linearGradient-23">
            <stop stop-color="#FFFFFF" stop-opacity="0" offset="0%"></stop>
            <stop stop-color="#FFFFFF" offset="100%"></stop>
        </linearGradient>
        <linearGradient x1="50%" y1="0%" x2="50%" y2="100%" id="linearGradient-24">
            <stop stop-color="#FFFFFF" stop-opacity="0" offset="0%"></stop>
            <stop stop-color="#FFFFFF" offset="100%"></stop>
        </linearGradient>
    </defs>
    <g id="Pc暗黑" stroke="none" stroke-width="1" fill="none" fill-rule="evenodd">
        <g id="1-1-1-6-1-Shuttle-in-成为Token-失败" transform="translate(-867.000000, -352.000000)">
            <g id="编组-5" transform="translate(799.000000, 320.000000)">
                <mask id="mask-2" fill="white">
                    <use xlink:href="#path-1"></use>
                </mask>
                <use id="蒙版" fill="#D8D8D8" opacity="0" xlink:href="#path-1"></use>
                <g mask="url(#mask-2)">
                    <g transform="translate(68.000000, 32.000000)">
                        <g id="路径-16" transform="translate(0.000000, 42.000000)">
                            <mask id="mask-5" fill="white">
                                <use xlink:href="#path-4"></use>
                            </mask>
                            <use id="蒙版" fill="url(#linearGradient-3)" xlink:href="#path-4"></use>
                            <polygon id="星形" fill="#FFFFFF" mask="url(#mask-5)" transform="translate(37.759227, 87.759227) rotate(41.000000) translate(-37.759227, -87.759227) " points="37.7592274 89.4751639 33.8701401 91.6483146 36.0432908 87.7592274 33.8701401 83.8701401 37.7592274 86.0432908 41.6483146 83.8701401 39.4751639 87.7592274 41.6483146 91.6483146"></polygon>
                            <polygon id="星形备份-2" fill="#FFFFFF" mask="url(#mask-5)" transform="translate(146.526922, 85.759227) rotate(41.000000) translate(-146.526922, -85.759227) " points="146.526922 87.4751639 142.637834 89.6483146 144.810985 85.7592274 142.637834 81.8701401 146.526922 84.0432908 150.416009 81.8701401 148.242858 85.7592274 150.416009 89.6483146"></polygon>
                            <polygon id="星形备份" fill="#FFFFFF" mask="url(#mask-5)" transform="translate(52.196917, 98.913950) rotate(41.000000) translate(-52.196917, -98.913950) " points="52.1969175 99.6939216 50.4291505 100.681717 51.4169463 98.9139504 50.4291505 97.1461835 52.1969175 98.1339793 53.9646844 97.1461835 52.9768887 98.9139504 53.9646844 100.681717"></polygon>
                            <polygon id="星形备份-3" fill="#FFFFFF" mask="url(#mask-5)" transform="translate(133.526922, 109.759227) rotate(41.000000) translate(-133.526922, -109.759227) " points="133.526922 110.539199 131.759155 111.526994 132.74695 109.759227 131.759155 107.99146 133.526922 108.979256 135.294688 107.99146 134.306893 109.759227 135.294688 111.526994"></polygon>
                            <path d="M170.121094,113 C180.869323,113 189.817314,120.707739 191.739241,130.89739 L207.732422,147 L181.121116,208.749752 L58.1210938,209.670853 L-19,164 L-11.6010142,149.296472 C-14.8915438,145.451285 -16.8789062,140.457729 -16.8789062,135 C-16.8789062,122.849736 -7.02917075,113 5.12109375,113 C13.9022075,113 21.4817336,118.144608 25.0094262,125.583941 C27.1173733,123.96344 29.7567218,123 32.6210938,123 C37.7555067,123 42.1668993,126.095618 44.0907251,130.522913 C45.0376308,130.184381 46.0578301,130 47.1210938,130 C50.7695581,130 53.9109657,132.170968 55.3232162,135.29034 C56.9087387,134.465921 58.7105054,134 60.6210938,134 C65.1902138,134 69.1369673,136.664668 70.9921185,140.524768 C73.5817962,136.028019 78.4372823,133 84,133 C89.1243051,133 93.6484632,135.569535 96.3542931,139.490423 C98.315358,137.931214 100.798931,137 103.5,137 C104.526877,137 105.522318,137.13459 106.469646,137.387093 C108.55203,135.295446 111.435278,134 114.621094,134 C116.222954,134 117.748319,134.327512 119.133881,134.919226 L120.167907,134.783474 C121.679726,131.937813 124.674109,130 128.121094,130 C129.184357,130 130.204557,130.184381 131.151462,130.522913 C133.075288,126.095618 137.486681,123 142.621094,123 C145.485466,123 148.124814,123.96344 150.232761,125.583941 C153.760454,118.144608 161.33998,113 170.121094,113 Z" id="形状结合" fill="#FFFFFF" mask="url(#mask-5)"></path>
                        </g>
                        <g id="编组-8备份" transform="translate(33.000000, 0.000000)">
                            <g id="路径-44备份-2" transform="translate(31.763851, 32.264427)">
                                <mask id="mask-8" fill="white">
                                    <use xlink:href="#path-7"></use>
                                </mask>
                                <g id="蒙版" transform="translate(20.262250, 18.658045) rotate(-319.000000) translate(-20.262250, -18.658045) ">
                                    <use fill="url(#linearGradient-6)" fill-rule="evenodd" xlink:href="#path-7"></use>
                                    <use fill="black" fill-opacity="1" filter="url(#filter-9)" xlink:href="#path-7"></use>
                                </g>
                                <path d="M4.9122807,0.701754386 C7.05729167,7.3732182 13.5105994,11.8373081 24.2722039,14.0940241" stroke="#DFDCE3" stroke-width="2.80701754" opacity="0.34219215" mask="url(#mask-8)" transform="translate(14.592242, 7.397889) rotate(-75.000000) translate(-14.592242, -7.397889) "></path>
                            </g>
                            <g id="路径-44" transform="translate(0.000000, 39.178730)">
                                <mask id="mask-12" fill="white">
                                    <use xlink:href="#path-11"></use>
                                </mask>
                                <use id="蒙版" fill="url(#linearGradient-10)" transform="translate(43.082854, 44.806401) rotate(-345.000000) translate(-43.082854, -44.806401) " xlink:href="#path-11"></use>
                                <path d="M57.7287634,52.7348191 C59.8737744,59.4062829 66.3270822,63.8703728 77.0886867,66.1270888" id="路径-44备份-2" stroke="#C0BAC8" stroke-width="2.80701754" mask="url(#mask-12)" transform="translate(67.408725, 59.430954) rotate(-22.000000) translate(-67.408725, -59.430954) "></path>
                                <path d="M24.1679082,46.3576946 C26.3129192,53.0291584 32.7662269,57.4932483 43.5278314,59.7499644" stroke="#C9C5CE" stroke-width="2.80701754" mask="url(#mask-12)"></path>
                                <path d="M9.30771082,33.0856963 C10.8627489,40.0773849 15.5411114,44.7557475 23.3427985,47.120784" id="路径-44备份" stroke="#C9C5CE" stroke-width="2.80701754" mask="url(#mask-12)"></path>
                                <path d="M16.3252547,66.0681524 C19.884964,74.1499368 24.2419176,76.9053279 29.3961154,74.3343256 C37.1274122,70.4778223 31.6966911,60.2265954 41.2039553,51.6554605 C47.5421315,45.9413706 54.2103972,44.1958936 61.2087525,46.4190296 L56.5006933,66.0681524 C56.7935291,68.6366831 58.6623613,69.2788158 62.10719,67.9945504 C67.2744329,66.0681524 71.1292569,59.6886294 73.0015156,53.0538295 C74.2496882,48.6306296 74.2496882,42.5593805 73.0015156,34.8400822 L86.5006933,51.6554605 L74.8737744,79.5714419 L3.55935555,87.1920559 L16.3252547,66.0681524 Z" id="路径-4" fill="url(#linearGradient-13)" opacity="0.415992374" mask="url(#mask-12)"></path>
                                <path d="M3.55935555,53.0538295 C4.86874883,58.5959073 7.20678794,60.8279523 10.5734729,59.7499644 C15.6235003,58.1329824 17.366236,54.3860559 18.5840266,49.5962284 C19.8018172,44.8064008 21.0285167,43.0569134 24.1679082,41.2291996 C26.2608358,40.0107237 28.1145913,39.4014857 29.7291746,39.4014857 L24.1679082,46.4190296 L18.5840266,59.4309539 L11.8344378,64.594057 L0,59.7499644 L3.55935555,53.0538295 Z" id="路径-6" fill="url(#linearGradient-14)" opacity="0.415992374" mask="url(#mask-12)"></path>
                            </g>
                            <path d="M41.2039553,65.0810385 L41.2039553,67.63544 C41.2039553,67.8918545 41.2742,68.1433693 41.4070628,68.362677 L43.7542403,72.2370052 C44.111505,72.8267182 44.8442066,73.0695889 45.4829801,72.8100356 L49.3424093,71.2418309 C51.9181261,70.1952379 54.6720728,69.6570956 57.452302,69.6570956 L60.5217492,69.6570956 C61.186145,69.6570956 61.7595172,69.1912377 61.8955324,68.5409134 L62.10719,67.5289236 L62.10719,67.5289236 L41.2039553,65.0810385 Z" id="路径-43" fill="url(#linearGradient-15)"></path>
                            <g id="路径-45" transform="translate(100.888041, 55.186626) rotate(-345.000000) translate(-100.888041, -55.186626) translate(56.388041, 10.686626)">
                                <mask id="mask-18" fill="white">
                                    <use xlink:href="#path-17"></use>
                                </mask>
                                <use id="蒙版" fill="url(#linearGradient-16)" xlink:href="#path-17"></use>
                                <g mask="url(#mask-18)">
                                    <use fill="url(#linearGradient-19)" fill-rule="evenodd" xlink:href="#path-20"></use>
                                    <use fill="black" fill-opacity="1" filter="url(#filter-21)" xlink:href="#path-20"></use>
                                </g>
                                <circle id="椭圆形" stroke="#AEA5B6" stroke-width="1.40350877" fill="#EDEDED" mask="url(#mask-18)" cx="62.2518041" cy="59.2399326" r="3.15789474"></circle>
                                <path d="M20.0294654,23.5938303 C21.5631205,21.2984447 23.4344655,19.6610178 25.6435005,18.6815496" id="路径-2" stroke="#FFFFFF" stroke-width="1.40350877" stroke-linecap="round" stroke-linejoin="round" mask="url(#mask-18)"></path>
                                <path d="M16.8267517,27.2449182 C17.2101654,26.5890937 17.6780017,26.1212574 18.2302604,25.8414094" id="路径-2备份" stroke="#FFFFFF" stroke-width="1.40350877" stroke-linecap="round" stroke-linejoin="round" mask="url(#mask-18)" transform="translate(17.528506, 26.543164) rotate(-10.000000) translate(-17.528506, -26.543164) "></path>
                            </g>
                            <path d="M43.6997084,70.4875643 L41.3723671,66.242062 C40.8134553,65.2225033 41.1868834,63.9429002 42.2064421,63.3839884 C42.3044679,63.3302517 42.4066179,63.284408 42.5119234,63.2468922 L44.4508607,62.5561326 C47.2739108,61.5504018 50.2485559,61.0363565 53.2454054,61.0363565 L55.6701991,61.0363565 C57.6020876,61.0363565 59.3982615,62.0296629 60.4252564,63.6659621 L61.9936291,66.1648324 C62.4056929,66.8213688 62.2075086,67.6876404 61.5509722,68.0997041 C61.3274102,68.2400189 61.0688122,68.3144485 60.8048648,68.3144485 L57.2767273,68.3144485 C54.2822582,68.3144485 51.3133038,68.8649694 48.5179061,69.9385604 L45.4336171,71.123102 C44.7780428,71.3748797 44.0372848,71.1033662 43.6997084,70.4875643 Z" id="路径-42" fill="#FFFFFF"></path>
                            <ellipse id="椭圆形" fill="#C9C5CE" cx="51.7638512" cy="65.2468828" rx="3.15789474" ry="1"></ellipse>
                            <path d="M16.5094235,38.0266015 L16.8769585,39.127324 C16.9329263,39.304686 16.9748872,39.43878 17.0028414,39.529606 C18.2829448,43.6887884 20.4351647,46.0658957 23.6062202,47.3079209 L23.7688055,47.3706152 L24.093617,47.4898127 L24.4193306,47.6010021 L24.7476032,47.7044796 L25.0800918,47.8005411 C25.1359499,47.8159498 25.1920527,47.8310619 25.2484348,47.8458835 L25.5903539,47.9313765 L25.9406313,48.0101938 C25.9997995,48.0227902 26.0593849,48.0351208 26.1194221,48.0471917 L26.4853436,48.116551 L26.8637657,48.1799749 L27.2563452,48.2377597 C27.323047,48.246937 27.3904077,48.2558917 27.4584619,48.2646299 L27.8753844,48.3145111 L28.3106067,48.3594934 L28.7657858,48.399873 L29.2425786,48.4359459 L29.7426419,48.4680082 L30.2676328,48.4963562 L30.8192081,48.5212858 L31.7000414,48.5529187 L32.9829961,48.5858955 L35.5151797,48.6326122 L36.7757096,48.6670461 L37.3552098,48.6881014 L38.1682872,48.7254611 L38.6766665,48.7547265 L39.161129,48.7878852 L39.6242643,48.8252852 L40.0686617,48.8672746 L40.4969109,48.9142017 L40.9116012,48.9664144 L41.3153222,49.0242609 L41.7106634,49.0880893 L42.1002143,49.1582476 L42.4865643,49.2350841 C42.5508331,49.248466 42.6150764,49.2621407 42.6793482,49.2761154 L43.0657522,49.3636217 L43.4554291,49.4586763 C50.5963059,51.2602964 53.7513936,56.6198628 52.7878742,65.0278062 L52.7517114,65.3293851 L49.9664325,64.9807182 C50.8750157,57.7226232 48.5216595,53.6318477 42.7687455,52.1804061 L42.4227724,52.0961715 C42.3652618,52.0826879 42.3077938,52.0694779 42.2503187,52.0565353 L41.9049856,51.982038 C41.8472834,51.9701399 41.7894746,51.9584967 41.7315097,51.9471022 L41.3814475,51.8816689 L41.0252498,51.8219041 L40.6605304,51.7675084 L40.2849029,51.7181825 L39.8959812,51.6736272 L39.491379,51.633543 L39.0687101,51.5976307 L38.6255881,51.5655909 L38.1596269,51.5371243 L37.6684402,51.5119316 L36.8791425,51.4796263 L36.0196648,51.4530035 L35.0819535,51.4310531 L32.8954536,51.3917601 L31.5542119,51.3571426 L30.6291702,51.3236688 L30.0477625,51.2971408 L29.492573,51.2668476 L28.9618781,51.2324502 L28.4539539,51.1936097 L27.9670766,51.149987 C27.8875886,51.1422992 27.8089056,51.134398 27.7309919,51.1262764 L27.272453,51.0748449 C27.1974725,51.0658133 27.1231894,51.0565471 27.0495678,51.0470392 L26.6154886,50.9870362 L26.1955611,50.920895 C26.1266568,50.9093412 26.0582702,50.8975174 25.9903656,50.8854167 L25.5884338,50.8094328 L25.1963442,50.7264633 C25.1317204,50.7120341 25.0674348,50.6972997 25.0034516,50.6822531 L24.6228934,50.5881697 C24.1824714,50.4739023 23.7533457,50.3436425 23.3231982,50.1949679 L22.9539629,50.0629663 L22.5825033,49.9216063 C18.6027587,48.3628372 15.848161,45.3204092 14.3200174,40.3553193 C14.2953257,40.2750938 14.2592186,40.1562524 14.211696,39.9987951 L15.0489502,41.1431885 L14.6929932,38.4185791 L15.949707,40.7114258 L15.6409912,39.127324 L16.5094235,40.3553193 L16.5094235,38.0266015 Z M19.8617125,0.378462052 L22.0965271,2.07697654 C15.4365503,10.8398179 12.8693311,19.7534268 14.3339348,28.8899057 C14.3440679,28.9531179 14.3556225,29.0467223 14.3685986,29.1707189 L13.7612979,28.8094268 L13.606044,29.9141157 L13.0503166,28.8604547 L12.7378481,31.083783 L11.9998491,28.7128212 L11.5950626,29.5235025 C11.5799288,29.4391393 11.5690088,29.3760406 11.5623027,29.3342062 C9.99295375,19.5443061 12.6782625,10.0029825 19.5598683,0.779291728 L19.8617125,0.378462052 Z" id="形状结合" fill="url(#linearGradient-22)" fill-rule="nonzero"></path>
                            <line x1="121.701754" y1="99.4668311" x2="121.701754" y2="109.993147" id="路径-47" stroke="url(#linearGradient-23)" stroke-width="2.10526316" stroke-linecap="round"></line>
                            <line x1="130.473684" y1="95.607182" x2="130.473684" y2="127.887884" id="路径-48" stroke="url(#linearGradient-24)" stroke-width="2.10526316" stroke-linecap="round"></line>
                        </g>
                    </g>
                </g>
            </g>
        </g>
    </g>
</svg>