<?xml version="1.0" encoding="UTF-8"?>
<svg width="192px" height="210px" viewBox="0 0 192 210" version="1.1" xmlns="http://www.w3.org/2000/svg" xmlns:xlink="http://www.w3.org/1999/xlink">
    <defs>
        <rect id="path-1" x="0" y="0" width="340" height="240"></rect>
        <linearGradient x1="50%" y1="78.2763416%" x2="50%" y2="-5.41762107%" id="linearGradient-3">
            <stop stop-color="#E6E6ED" offset="0%"></stop>
            <stop stop-color="#FDFAFD" offset="100%"></stop>
        </linearGradient>
        <circle id="path-4" cx="95.6210938" cy="95.5" r="95.5"></circle>
        <linearGradient x1="50%" y1="100%" x2="50%" y2="0%" id="linearGradient-6">
            <stop stop-color="#F9F2A6" stop-opacity="0" offset="0%"></stop>
            <stop stop-color="#F1E06D" offset="100%"></stop>
        </linearGradient>
        <linearGradient x1="50%" y1="-8.90873117%" x2="50%" y2="34.4291681%" id="linearGradient-7">
            <stop stop-color="#C7C6CA" offset="0%"></stop>
            <stop stop-color="#998EA4" offset="100%"></stop>
        </linearGradient>
        <path d="M59.5003418,0.04 C63.1107922,5.77979329 65.2470483,12.3227714 65.7191805,19.0872131 L67.8461512,49.561241 C67.9230588,50.6631298 67.0921474,51.6187331 65.9902586,51.6956408 C65.3767159,51.7384637 64.7775891,51.4966145 64.3657106,51.0398603 L49,34 L59.5003418,0.04 Z M8.7496582,0.04 L19.25,34 L3.88428944,51.0398603 C3.47241087,51.4966145 2.87328407,51.7384637 2.25974143,51.6956408 C1.1578526,51.6187331 0.326941162,50.6631298 0.403848791,49.561241 L0.403848791,49.561241 L2.53081948,19.0872131 C3.00295166,12.3227714 5.1392078,5.77979329 8.7496582,0.04 L8.7496582,0.04 Z" id="path-8"></path>
        <filter x="8.3%" y="-2.1%" width="81.3%" height="104.3%" filterUnits="objectBoundingBox" id="filter-10">
            <feGaussianBlur stdDeviation="1" in="SourceGraphic"></feGaussianBlur>
        </filter>
        <linearGradient x1="30.8338553%" y1="-2.44476579%" x2="60.7315754%" y2="132.786648%" id="linearGradient-11">
            <stop stop-color="#F8F8F8" offset="0%"></stop>
            <stop stop-color="#F8F8F8" offset="18.4890828%"></stop>
            <stop stop-color="#C0BBC5" offset="100%"></stop>
        </linearGradient>
        <path d="M24.5976563,112.724883 L19.1822456,97.3239693 C7.36669667,63.7216701 14.9455743,26.3456416 38.9169922,0 L38.9169922,0 L38.9169922,0 C64.8584753,27.299246 72.4975732,67.2193808 58.4677206,102.167523 L54.2294922,112.724883 L54.2294922,112.724883 L24.5976563,112.724883 Z" id="path-12"></path>
        <linearGradient x1="42.4944196%" y1="44.1975607%" x2="50%" y2="55.8024393%" id="linearGradient-14">
            <stop stop-color="#EEEEEE" offset="0%"></stop>
            <stop stop-color="#998EA4" offset="100%"></stop>
        </linearGradient>
        <linearGradient x1="46.3643515%" y1="0%" x2="51.4170984%" y2="50%" id="linearGradient-15">
            <stop stop-color="#EDEDED" stop-opacity="0.0461647727" offset="0%"></stop>
            <stop stop-color="#BBB4C3" offset="100%"></stop>
        </linearGradient>
        <path d="M38.9169922,0 C64.8584753,27.299246 72.4975732,67.2193808 58.4677206,102.167523 L54.2294922,112.724883 L46.2294922,112.724883 L50.4677206,102.167523 C63.7314028,69.1278992 57.6281954,31.6444963 35.0026909,4.5824873 C36.0316455,3.29695982 37.0993225,2.03345998 38.2027704,0.793663559 L38.9169922,0 Z" id="path-16"></path>
        <linearGradient x1="50%" y1="-8.90873117%" x2="50%" y2="34.4291681%" id="linearGradient-18">
            <stop stop-color="#C7C6CA" offset="0%"></stop>
            <stop stop-color="#998EA4" offset="100%"></stop>
        </linearGradient>
        <circle id="path-19" cx="14" cy="14" r="14"></circle>
        <filter x="-10.7%" y="-18.8%" width="121.4%" height="137.5%" filterUnits="objectBoundingBox" id="filter-21">
            <feGaussianBlur stdDeviation="1" in="SourceGraphic"></feGaussianBlur>
        </filter>
        <linearGradient x1="50%" y1="-8.90873117%" x2="50%" y2="34.4291681%" id="linearGradient-22">
            <stop stop-color="#C7C6CA" offset="0%"></stop>
            <stop stop-color="#998EA4" offset="100%"></stop>
        </linearGradient>
    </defs>
    <g id="Pc暗黑" stroke="none" stroke-width="1" fill="none" fill-rule="evenodd">
        <g id="1-1-1-6-Shuttle-in-成为Token-交易已发出" transform="translate(-864.000000, -365.000000)">
            <g id="编组-4" transform="translate(790.000000, 335.000000)">
                <mask id="mask-2" fill="white">
                    <use xlink:href="#path-1"></use>
                </mask>
                <use id="蒙版" fill="#D8D8D8" opacity="0" xlink:href="#path-1"></use>
                <g mask="url(#mask-2)">
                    <g transform="translate(74.000000, 30.000000)">
                        <g id="路径-16" stroke="none" stroke-width="1" fill="none" fill-rule="evenodd" transform="translate(0.000000, 40.000000)">
                            <mask id="mask-5" fill="white">
                                <use xlink:href="#path-4"></use>
                            </mask>
                            <use id="蒙版" fill="url(#linearGradient-3)" xlink:href="#path-4"></use>
                            <polygon id="星形" fill="#FFFFFF" mask="url(#mask-5)" transform="translate(37.759227, 87.759227) rotate(41.000000) translate(-37.759227, -87.759227) " points="37.7592274 89.4751639 33.8701401 91.6483146 36.0432908 87.7592274 33.8701401 83.8701401 37.7592274 86.0432908 41.6483146 83.8701401 39.4751639 87.7592274 41.6483146 91.6483146"></polygon>
                            <polygon id="星形备份-2" fill="#FFFFFF" mask="url(#mask-5)" transform="translate(146.526922, 85.759227) rotate(41.000000) translate(-146.526922, -85.759227) " points="146.526922 87.4751639 142.637834 89.6483146 144.810985 85.7592274 142.637834 81.8701401 146.526922 84.0432908 150.416009 81.8701401 148.242858 85.7592274 150.416009 89.6483146"></polygon>
                            <polygon id="星形备份" fill="#FFFFFF" mask="url(#mask-5)" transform="translate(52.196917, 98.913950) rotate(41.000000) translate(-52.196917, -98.913950) " points="52.1969175 99.6939216 50.4291505 100.681717 51.4169463 98.9139504 50.4291505 97.1461835 52.1969175 98.1339793 53.9646844 97.1461835 52.9768887 98.9139504 53.9646844 100.681717"></polygon>
                            <polygon id="星形备份-3" fill="#FFFFFF" mask="url(#mask-5)" transform="translate(133.526922, 109.759227) rotate(41.000000) translate(-133.526922, -109.759227) " points="133.526922 110.539199 131.759155 111.526994 132.74695 109.759227 131.759155 107.99146 133.526922 108.979256 135.294688 107.99146 134.306893 109.759227 135.294688 111.526994"></polygon>
                            <path d="M104.393555,79.8876953 L106.105671,113.227066 C106.487128,120.655029 108.468124,127.846455 111.843012,134.3388 C112.732859,134.11709 113.663302,134 114.621094,134 C116.222569,134 117.747586,134.327355 119.132883,134.9188 L120.168352,134.782637 C121.680314,131.937433 124.674448,130 128.121094,130 C129.184357,130 130.204557,130.184381 131.151462,130.522913 C133.075288,126.095618 137.486681,123 142.621094,123 C145.485466,123 148.124814,123.96344 150.232761,125.583941 C153.760454,118.144608 161.33998,113 170.121094,113 C180.869162,113 189.817045,120.707506 191.739154,130.89693 L207.732422,147 L181.121116,208.749752 L58.1210938,209.670853 L-19,164 L-11.6010142,149.296472 C-14.8915438,145.451285 -16.8789062,140.457729 -16.8789062,135 C-16.8789062,122.849736 -7.02917075,113 5.12109375,113 C13.9022075,113 21.4817336,118.144608 25.0094262,125.583941 C27.1173733,123.96344 29.7567218,123 32.6210938,123 C37.7555067,123 42.1668993,126.095618 44.0907251,130.522913 C45.0376308,130.184381 46.0578301,130 47.1210938,130 C50.7695581,130 53.9109657,132.170968 55.3232162,135.29034 C56.9087387,134.465921 58.7105054,134 60.6210938,134 C64.0006622,134 67.0397412,135.457808 69.1437957,137.77889 C74.7759761,130.050485 78.1737653,120.818021 78.8138457,111.105189 L78.8138457,111.105189 L80.8710938,79.8876953 L104.393555,79.8876953 Z" id="形状结合" fill="#FFFFFF" mask="url(#mask-5)"></path>
                            <polygon id="路径-3" fill="url(#linearGradient-6)" mask="url(#mask-5)" points="80.8710938 79.8876953 104.393555 79.8876953 92.1225586 126"></polygon>
                        </g>
                        <g id="蒙版" stroke="none" stroke-width="1" fill="none" fill-rule="evenodd" transform="translate(58.121094, 79.000000)">
                            <mask id="mask-9" fill="white">
                                <use xlink:href="#path-8"></use>
                            </mask>
                            <use fill="url(#linearGradient-7)" xlink:href="#path-8"></use>
                            <path d="M18.3537046,57 L6.88235876,17.4104026 C-1.85898055,-12.7574703 4.08132572,-45.2794714 22.9230416,-70.4091613 L33.1131682,-84 L33.1131682,-84 L43.9645873,-70.1422089 C64.6003288,-43.7893611 70.6833758,-8.8599052 60.1711435,22.9174356 L48.8963224,57 L48.8963224,57 L18.3537046,57 Z" fill="#73687F" filter="url(#filter-10)" mask="url(#mask-9)"></path>
                        </g>
                        <g id="椭圆形" stroke="none" stroke-width="1" fill="none" fill-rule="evenodd" transform="translate(53.121094, 0.000000)">
                            <mask id="mask-13" fill="white">
                                <use xlink:href="#path-12"></use>
                            </mask>
                            <use id="蒙版" fill="url(#linearGradient-11)" xlink:href="#path-12"></use>
                            <ellipse fill="url(#linearGradient-14)" mask="url(#mask-13)" cx="39.5" cy="13.5" rx="45.5" ry="15.5"></ellipse>
                            <mask id="mask-17" fill="white">
                                <use xlink:href="#path-16"></use>
                            </mask>
                            <use id="形状结合" fill="url(#linearGradient-15)" opacity="0.415992374" xlink:href="#path-16"></use>
                        </g>
                        <g id="形状结合" stroke="none" stroke-width="1" fill="none" fill-rule="evenodd" transform="translate(79.121094, 40.000000)">
                            <mask id="mask-20" fill="white">
                                <use xlink:href="#path-19"></use>
                            </mask>
                            <use id="蒙版" fill="url(#linearGradient-18)" xlink:href="#path-19"></use>
                            <path d="M14,0 C21.7319865,0 28,6.2680135 28,14 C28,14.630042 27.9583815,15.2503635 27.8777436,15.8583652 L27.8789062,16 C27.8789062,8.2680135 21.6108927,2 13.8789062,2 C6.77696175,2 0.91012669,7.28813212 0.0011626311,14.1416348 L0,14 C0,6.2680135 6.2680135,0 14,0 Z" fill="#73687F" filter="url(#filter-21)" mask="url(#mask-20)"></path>
                        </g>
                        <g id="编组-3" stroke="none" stroke-width="1" fill="none" fill-rule="evenodd" transform="translate(85.000000, 46.000000)">
                            <path d="M12.2095037,5.12288947 L7.78055406,0.636231077 C7.43750193,0.288709011 6.87768093,0.285085411 6.53015887,0.628137541 C6.52784284,0.63042378 6.52553945,0.632722789 6.52324881,0.635034461 L-2.11510396e-14,7.21816979 L-2.11510396e-14,7.21816979 L15.9507904,6.79902221 L4.84879623,6.13300768 L6.57262858,4.24439346 C6.89543726,3.89072737 7.44112095,3.85830098 7.80354207,4.17124837 L8.90562775,5.12288947 L8.90562775,5.12288947 L12.2095037,5.12288947 Z" id="路径-5" fill="#FFFFFF"></path>
                            <path d="M12.2095037,13.1869917 L7.78055406,8.70033328 C7.43750193,8.35281121 6.87768093,8.34918761 6.53015887,8.69223974 C6.52784284,8.69452598 6.52553945,8.69682499 6.52324881,8.69913666 L-3.54279913e-13,15.282272 L-3.54279913e-13,15.282272 L15.9507904,14.8631244 L4.84879623,14.1971099 L6.57262858,12.3084957 C6.89543726,11.9548296 7.44112095,11.9224032 7.80354207,12.2353506 L8.90562775,13.1869917 L8.90562775,13.1869917 L12.2095037,13.1869917 Z" id="路径-5备份" fill="#FFFFFF" transform="translate(7.975395, 11.673187) rotate(-180.000000) translate(-7.975395, -11.673187) "></path>
                        </g>
                        <polygon id="路径-13" stroke="none" fill="#FFFFFF" fill-rule="evenodd" points="77.3710938 113.939697 80.8710938 119.887695 104.393555 119.887695 106.874023 113.939697"></polygon>
                        <path d="M91.087188,133.514439 L88.6742508,80.1944781 C88.5863952,78.2530855 90.0889838,76.6080548 92.0303764,76.5201991 C92.0833681,76.5178011 92.1364072,76.5166016 92.1894531,76.5166016 C94.11155,76.5166016 95.6697174,78.074769 95.6697174,79.9968658 C95.6697174,80.062091 95.6678838,80.1273032 95.6642187,80.1924253 L92.663237,133.514857 C92.6395884,133.935053 92.291955,134.263672 91.8710938,134.263672 C91.451506,134.263672 91.1061566,133.933597 91.087188,133.514439 Z" id="路径-12" stroke="none" fill="url(#linearGradient-22)" fill-rule="evenodd"></path>
                        <path d="M86.9250807,13 C86.2789185,13.7095682 85.6799593,14.5216343 85.1282032,15.4361984 C84.576447,16.3507624 84.1754062,17.205363 83.9250807,18" id="路径-17" stroke="#FFFFFF" stroke-width="2" fill="none" stroke-linecap="round"></path>
                        <path d="M83.1300368,20.5 C82.9146494,20.6419136 82.7149963,20.8043269 82.5310776,20.9872397 C82.3471589,21.1701525 82.2134786,21.3410726 82.1300368,21.5" id="路径-17备份" stroke="#FFFFFF" stroke-width="2" fill="none" stroke-linecap="round" transform="translate(82.630037, 21.000000) rotate(-18.000000) translate(-82.630037, -21.000000) "></path>
                    </g>
                </g>
            </g>
        </g>
    </g>
</svg>