<?xml version="1.0" encoding="UTF-8"?>
<svg width="22px" height="23px" viewBox="0 0 22 23" version="1.1" xmlns="http://www.w3.org/2000/svg" xmlns:xlink="http://www.w3.org/1999/xlink">
    <g id="Pc暗黑" stroke="none" stroke-width="1" fill="none" fill-rule="evenodd">
        <g id="1-1-2-Shuttle-In-成为Token-Caption-空状态" transform="translate(-737.000000, -350.000000)" fill-rule="nonzero">
            <g id="搜索" transform="translate(736.000000, 349.000000)">
                <rect id="矩形" fill="#000000" opacity="0" x="0" y="0" width="25.2" height="25.2"></rect>
                <path d="M11.5502625,19.4252625 C15.899625,19.4252625 19.4252625,15.899625 19.4252625,11.5502625 C19.4252625,7.2009 15.899625,3.6752625 11.5502625,3.6752625 C7.2009,3.6752625 3.6752625,7.2009 3.6752625,11.5502625 C3.6752625,15.899625 7.2009,19.4252625 11.5502625,19.4252625 Z M18.8559,18.3416625 L22.2201,21.7854 C22.6252319,22.2003177 22.617299,22.8650993 22.2023812,23.2702313 C21.7874635,23.6753632 21.1226819,23.6674302 20.71755,23.2525125 L17.269875,19.7229375 C15.5945914,20.8986431 13.5969302,21.527949 11.5502625,21.5247375 C6.040125,21.5247375 1.575,17.0596125 1.575,11.5502625 C1.575,6.0409125 6.0409125,1.575 11.5502625,1.575 C17.058825,1.575 21.5247375,6.0409125 21.5247375,11.5502625 C21.5247375,14.173425 20.5120125,16.5603375 18.8559,18.3416625 Z" id="形状" fill="#BBBBBB"></path>
            </g>
        </g>
    </g>
</svg>