<?xml version="1.0" encoding="UTF-8"?>
<svg width="40px" height="40px" viewBox="0 0 40 40" version="1.1" xmlns="http://www.w3.org/2000/svg" xmlns:xlink="http://www.w3.org/1999/xlink">
    <g id="H5暗黑" stroke="none" stroke-width="1" fill="none" fill-rule="evenodd">
        <g id="0-H5首页" transform="translate(-670.000000, -126.000000)" fill-rule="nonzero">
            <g id="更多" transform="translate(670.000000, 126.000000)">
                <rect id="矩形" fill="#000000" opacity="0" x="0" y="0" width="40" height="40"></rect>
                <path d="M11.175,8.6725 L36.825,8.6725 C37.89,8.6725 38.75,7.8325 38.75,6.7975 C38.75,5.7625 37.89,4.9225 36.825,4.9225 L11.175,4.9225 C10.1125,4.9225 9.25,5.7625 9.25,6.7975 C9.25,7.8325 10.1125,8.6725 11.175,8.6725 Z M36.825,18.0475 L3.175,18.0475 C2.11,18.0475 1.25,18.8875 1.25,19.9225 C1.25,20.9575 2.11,21.7975 3.175,21.7975 L36.825,21.7975 C37.89,21.7975 38.75,20.9575 38.75,19.9225 C38.75,18.8875 37.885,18.0475 36.825,18.0475 L36.825,18.0475 Z M36.825,31.3275 L3.175,31.3275 C2.1125,31.3275 1.25,32.1675 1.25,33.2025 C1.25,34.2375 2.1125,35.0775 3.175,35.0775 L36.825,35.0775 C37.89,35.0775 38.75,34.2375 38.75,33.2025 C38.75,32.1675 37.89,31.3275 36.825,31.3275 Z" id="形状" fill="#FFFFFF"></path>
            </g>
        </g>
    </g>
</svg>