<svg viewBox="0 0 280 58" version="1.1" xmlns="http://www.w3.org/2000/svg" xmlns:xlink="http://www.w3.org/1999/xlink">
	<g id="H5暗黑" stroke="none" stroke-width="1" fill="none" fill-rule="evenodd">
		<g id="0-H5首页" transform="translate(-32.000000, -118.000000)">
			<g id="ShuttleFlow-logo" transform="translate(32.000000, 118.000000)">
				<text id="ShuttleFlow" font-family="LucidaGrande-Bold, Lucida Grande" font-size="33.7204301" font-weight="bold" fill="#FFFFFF">
					<tspan x="76.7343377" y="41.0286738">
						ShuttleFlow
					</tspan>
				</text>
				<g id="编组-3">
					<path d="M46.1029108,19.3439572 L29.3792606,2.40239943 C28.0839007,1.09016109 25.9700246,1.07647843 24.6577863,2.37183835 C24.649041,2.38047115 24.6403434,2.38915218 24.631694,2.39788102 L-7.98660222e-14,27.2557056 L-7.98660222e-14,27.2557056 L60.2299558,25.6730104 L18.3089851,23.1581491 L24.8181513,16.0267689 C26.0370722,14.6913308 28.097566,14.5688892 29.466063,15.750574 L33.6275227,19.3439572 L33.6275227,19.3439572 L46.1029108,19.3439572 Z" id="路径-5" fill="#44D7B6">
					</path>
					<path d="M46.1029108,49.7938915 L29.3792606,32.8523337 C28.0839007,31.5400954 25.9700246,31.5264127 24.6577863,32.8217726 C24.649041,32.8304055 24.6403434,32.8390865 24.631694,32.8478153 L-1.33775587e-12,57.7056399 L-1.33775587e-12,57.7056399 L60.2299558,56.1229447 L18.3089851,53.6080834 L24.8181513,46.4767032 C26.0370722,45.1412651 28.097566,45.0188235 29.466063,46.2005083 L33.6275227,49.7938915 L33.6275227,49.7938915 L46.1029108,49.7938915 Z" id="路径-5备份" fill="#FFFFFF" transform="translate(30.114978, 44.077787) rotate(-180.000000) translate(-30.114978, -44.077787) ">
					</path>
				</g>
			</g>
		</g>
	</g>
</svg>
