<?xml version="1.0" encoding="UTF-8"?>
<svg width="14px" height="14px" viewBox="0 0 14 14" version="1.1" xmlns="http://www.w3.org/2000/svg" xmlns:xlink="http://www.w3.org/1999/xlink">
    <g id="V1.2-0126" stroke="none" stroke-width="1" fill="none" fill-rule="evenodd">
        <g id="1-Shuttle-In-交易对" transform="translate(-402.000000, -157.000000)" fill-rule="nonzero">
            <g id="check-Fill" transform="translate(401.000000, 156.000000)">
                <rect id="矩形" fill="#000000" opacity="0" x="0" y="0" width="15.8117647" height="15.8117647"></rect>
                <path d="M7.90588235,0.988235294 C4.08573529,0.988235294 0.988235294,4.08573529 0.988235294,7.90588235 C0.988235294,11.7260294 4.08573529,14.8235294 7.90588235,14.8235294 C11.7260294,14.8235294 14.8235294,11.7260294 14.8235294,7.90588235 C14.8235294,4.08573529 11.7260294,0.988235294 7.90588235,0.988235294 Z" id="形状" fill="#44D7B6"></path>
                <path d="M10.7933824,5.45073529 L10.0691912,5.45073529 C9.91169118,5.45073529 9.76191176,5.52639706 9.66926471,5.65610294 L7.24191176,9.02227941 L6.1425,7.49669118 C6.04985294,7.36852941 5.90161765,7.29132353 5.74257353,7.29132353 L5.01838235,7.29132353 C4.91801471,7.29132353 4.85933824,7.40558824 4.91801471,7.48742647 L6.84198529,10.1556618 C7.03808824,10.4289706 7.44419118,10.4289706 7.64029412,10.1556618 L10.8922059,5.64683824 C10.9524265,5.565 10.89375,5.45073529 10.7933824,5.45073529 Z" id="路径" fill="#FFFFFF"></path>
            </g>
        </g>
    </g>
</svg>