<?xml version="1.0" encoding="UTF-8"?>
<svg width="8px" height="7px" viewBox="0 0 8 7" version="1.1" xmlns="http://www.w3.org/2000/svg" xmlns:xlink="http://www.w3.org/1999/xlink">
    <title>三角形备份 6@2x</title>
    <g id="Pc暗黑" stroke="none" stroke-width="1" fill="none" fill-rule="evenodd">
        <g id="0-Pc-首页-History" transform="translate(-1858.000000, -37.000000)" fill="#FFFFFF">
            <g id="Navigation/Menu-pc未连接" transform="translate(1.000000, 0.000000)">
                <g id="Navigation/Mune-language" transform="translate(1766.000000, 20.000000)">
                    <g id="Icon/UP-white" transform="translate(90.000000, 17.000000)">
                        <path d="M5.87272727,1.16363636 L8.69090909,4.92121212 C9.05240456,5.40320608 8.95472124,6.08698938 8.47272727,6.44848485 C8.28389509,6.59010899 8.05422205,6.66666667 7.81818182,6.66666667 L2.18181818,6.66666667 C1.57932573,6.66666667 1.09090909,6.17825003 1.09090909,5.57575758 C1.09090909,5.33971734 1.16746677,5.11004431 1.30909091,4.92121212 L4.12727273,1.16363636 C4.4887682,0.6816424 5.17255149,0.583959073 5.65454545,0.945454545 C5.73724254,1.00747736 5.81070446,1.08093927 5.87272727,1.16363636 Z" id="三角形备份-6" transform="translate(5.000000, 3.333333) scale(1, -1) rotate(-180.000000) translate(-5.000000, -3.333333) "></path>
                    </g>
                </g>
            </g>
        </g>
    </g>
</svg>