<?xml version="1.0" encoding="UTF-8"?>
<svg width="19px" height="21px" viewBox="0 0 19 21" version="1.1" xmlns="http://www.w3.org/2000/svg" xmlns:xlink="http://www.w3.org/1999/xlink">
    <g id="H5暗黑" stroke="none" stroke-width="1" fill="none" fill-rule="evenodd">
        <g id="0-H5首页展开菜单" transform="translate(-686.000000, -743.000000)" fill="#BBBBBB">
            <g id="展开备份" transform="translate(695.500000, 753.708146) rotate(-180.000000) translate(-695.500000, -753.708146) translate(686.000000, 743.708146)">
                <g id="编组-5" transform="translate(9.534474, 9.826087) rotate(-45.000000) translate(-9.534474, -9.826087) translate(3.034474, 3.326087)">
                    <path d="M2.13888417,0.435313349 C3.09937939,0.435313349 3.87801461,1.21394857 3.87801461,2.17444378 L3.87775374,9.14231335 L10.8734396,9.14237644 C11.8339348,9.14237644 12.6125701,9.92101166 12.6125701,10.8815069 C12.6125701,11.8420021 11.8339348,12.6206373 10.8734396,12.6206373 L2.17778745,12.6206373 C2.0206155,12.6206373 1.8683132,12.5997879 1.7234954,12.560704 C0.963778569,12.3733215 0.399753736,11.6875763 0.399753736,10.870096 L0.399753736,2.17444378 C0.399753736,1.21394857 1.17838895,0.435313349 2.13888417,0.435313349 Z" id="形状结合"></path>
                </g>
            </g>
        </g>
    </g>
</svg>